<svg width="21" height="24" viewBox="0 0 21 24" fill="none" xmlns="http://www.w3.org/2000/svg">
<path d="M16.9959 0.318871C16.5738 0.554993 15.9708 1.15841 14.8975 2.43085C14.0654 3.41469 13.3779 4.29358 13.3538 4.38541C13.3176 4.55594 16.4411 8.36012 16.8029 8.57001C16.9597 8.66183 17.3336 8.30765 18.6602 6.7991C19.5767 5.76279 20.433 4.674 20.5656 4.37229C20.8671 3.7164 20.8671 2.96868 20.5656 2.26032C20.3003 1.61754 19.3355 0.45005 18.8531 0.174575C18.3587 -0.1009 17.6713 -0.0484288 16.9959 0.318871Z" fill="black"/>
<path d="M11.9305 5.77585C11.617 6.15627 9.43415 7.70417 8.68644 8.07147C8.34876 8.24201 7.23925 8.63554 6.22623 8.95037C4.64639 9.43573 4.34489 9.56691 4.21223 9.8555C4.12781 10.026 3.8625 10.9049 3.6213 11.8101C3.11479 13.6728 2.58415 15.4175 1.47465 18.8806C0.594278 21.6485 0.123944 23.485 0.220423 23.7867C0.377201 24.2327 1.07667 24.0097 3.33186 22.8291C5.88855 21.4779 10.4713 19.3266 11.7014 18.8806C12.1597 18.7101 12.8109 18.4477 13.1245 18.2903L13.7154 18.0148L14.0048 16.7949C14.4631 14.9059 15.2108 12.5184 15.7776 11.1542L16.2841 9.93421L14.8973 8.39942C14.1375 7.55988 13.2692 6.56292 12.9677 6.1825C12.6662 5.8152 12.3526 5.50037 12.2923 5.50037C12.22 5.50037 12.0632 5.61843 11.9305 5.77585ZM9.32561 13.6597C9.83212 14.25 10.1095 14.9977 10.013 15.5618C9.91654 16.1652 9.19295 17.0047 8.62614 17.1884C7.92667 17.4114 7.37191 17.2409 6.93776 16.6768C6.49154 16.0865 6.16593 15.0239 6.33477 14.6829C6.5036 14.3287 7.17896 13.7515 7.72165 13.4892C8.4573 13.1219 8.87939 13.1743 9.32561 13.6597ZM6.51566 17.3064C6.7448 17.5819 6.72068 17.595 5.30968 19.143C4.17605 20.3891 3.79014 20.7171 3.39216 20.8352C3.12685 20.9007 2.88565 20.9401 2.84947 20.9139C2.78917 20.8483 6.09357 17.0441 6.21417 17.0441C6.26241 17.0441 6.39507 17.1622 6.51566 17.3064Z" fill="black"/>
</svg>
