<svg width="621" height="392" viewBox="0 0 621 392" fill="none" xmlns="http://www.w3.org/2000/svg">
<path d="M550.612 3.76888C539.39 11.5263 523.409 17.8356 510.946 19.4388C509.239 19.6457 507.688 20.2145 506.86 20.9386L505.516 22.0763L506.136 31.592C507.429 50.9855 508.877 60.3978 511.928 70.0687C517.565 87.7038 528.167 100.995 546.216 113.045C553.094 117.647 555.421 118.63 557.645 117.906C560.386 117.027 569.385 111.493 574.867 107.356C591.312 94.944 601.552 76.9986 604.707 54.8125C605.689 47.986 606.724 31.1266 606.465 25.3344C606.258 20.1628 606.362 20.2145 598.811 18.8699C585.727 16.5944 571.66 10.3368 559.042 1.2348C558.059 0.562492 557.025 -0.00638264 556.714 -0.00638264C556.352 -0.00638264 553.663 1.70024 550.612 3.76888ZM583.865 36.505C585.468 38.0565 586.141 40.1251 585.624 42.2972C585.365 43.6935 578.849 50.9338 559.662 71.2064C554.335 76.7917 551.801 79.1189 550.715 79.3775C547.509 80.1015 546.164 79.0155 536.7 68.724C531.787 63.2939 527.443 58.3291 527.081 57.7086C525.788 55.4848 526.719 52.1232 529.098 50.4683C530.288 49.6409 532.873 49.3823 534.321 49.9512C534.787 50.1063 537.941 53.3644 541.406 57.1914C546.061 62.3113 548.026 64.1213 548.905 64.1213C549.836 64.1213 553.353 60.6564 563.437 49.8477C570.781 41.9869 577.246 35.3673 577.866 35.1087C579.573 34.3847 582.314 35.0053 583.865 36.505Z" fill="black"/>
<path d="M183.171 18.3528C174.224 20.7834 167.035 27.5582 164.398 36.0913C163.363 39.3494 163.363 41.1077 163.363 134.507V229.56L160.984 231.215C159.692 232.095 158.399 232.612 158.192 232.405C157.933 232.146 155.968 227.854 153.796 222.889C146.814 206.754 145.159 203.289 142.522 199.203C139.212 194.135 132.23 187.153 126.749 183.482L122.456 180.637L125.559 179.499C131.868 177.224 137.299 171.949 140.557 164.967C143.453 158.813 143.97 155.814 143.97 146.091C143.918 138.178 143.711 136.006 141.746 124.629C140.557 117.647 139.367 111.234 139.16 110.407C138.85 109.424 138.953 107.925 139.419 106.27C140.867 100.736 139.884 92.3582 136.988 86.1006C134.816 81.291 131.713 77.6192 125.456 72.2924C115.836 64.173 112.578 62.1561 105.442 59.8806C101.977 58.8463 100.632 58.6911 93.0298 58.7429C85.5827 58.7946 83.8243 58.9497 79.4802 60.1392C69.9128 62.6733 62.9828 66.3968 57.1906 72.1373C48.7092 80.4635 43.8479 90.4964 40.2795 107.201C37.3317 121.009 34.9528 125.974 27.1437 134.455C18.9726 143.35 16.0248 148.987 15.5593 156.693C15.3008 161.709 16.1282 165.898 18.352 170.242C19.6449 172.828 25.5922 179.241 28.54 181.31L29.9881 182.344L27.0403 184.361C22.7996 187.257 17.1108 193.101 14.0596 197.703C9.19829 204.944 7.33652 213.373 7.85368 225.475C8.21569 232.974 8.5777 234.887 11.5255 245.592C13.7493 253.453 13.6976 252.109 11.7841 275.122C10.4912 290.482 9.14658 301.135 6.87108 313.909C3.3544 333.406 3.0441 335.371 3.0441 338.319C3.0441 341.163 3.09582 341.319 4.337 341.319C5.06102 341.319 5.6299 341.629 5.6299 341.991C5.6299 342.405 4.59558 349.076 3.3544 356.885C0.303159 376.02 -0.265715 380.312 0.0962958 381.295C0.406591 382.122 5.47475 382.174 67.3787 382.174C119.56 382.174 134.402 382.019 134.713 381.553C135.333 380.623 135.178 379.33 132.075 360.091C130.524 350.369 129.231 342.198 129.231 341.887C129.231 341.577 129.696 341.319 130.265 341.319C130.834 341.319 131.455 340.957 131.662 340.491C131.92 339.767 130.731 318.874 129.955 310.496L129.645 307.341L132.644 306.979C137.505 306.41 139.522 305.686 140.402 304.342C140.867 303.618 141.126 302.583 140.97 302.014C140.712 300.98 140.867 300.98 143.815 301.29C145.728 301.497 148.314 301.394 150.486 300.98C153.899 300.308 154.106 300.36 155.244 301.342C157.054 302.997 159.536 304.083 161.553 304.083H163.363V331.596C163.363 353.834 163.519 359.678 164.139 361.953C166.363 370.383 172.621 377.261 181.205 380.674L184.308 381.915L305.323 382.071C393.551 382.174 427.166 382.071 429.442 381.657C439.061 379.847 447.542 371.676 450.128 361.643C450.8 359.057 450.904 338.836 450.904 199.772C450.904 85.7903 450.749 40.1251 450.335 38.1599C448.37 28.6442 440.767 20.9385 430.941 18.3528C428.304 17.6804 413.151 17.577 306.875 17.6287C204.529 17.6287 185.446 17.7322 183.171 18.3528ZM428.873 36.6602C429.752 37.2291 430.941 38.4702 431.51 39.4011C432.545 41.1077 432.545 42.0386 432.545 187.981C432.545 334.751 432.545 334.854 431.51 336.664C430.89 337.647 429.649 338.888 428.666 339.508C426.856 340.543 426.597 340.543 306.875 340.543C187.825 340.543 186.894 340.543 185.136 339.508C184.205 338.94 182.964 337.647 182.447 336.664C181.516 334.957 181.464 333.044 181.464 301.497V268.089L187.049 265.917C193.669 263.331 195.376 262.348 197.186 259.969C198.944 257.642 199.409 255.005 198.375 252.988C197.651 251.436 197.651 251.436 199.409 250.454C200.599 249.833 201.116 249.264 200.961 248.644C200.754 247.971 201.685 247.196 204.581 245.644C206.701 244.455 209.597 242.386 211.097 240.938C212.545 239.542 213.735 238.404 213.735 238.404C213.786 238.404 213.735 254.022 213.631 273.157C213.528 297.257 213.683 308.737 214.097 310.651C214.769 313.961 216.941 316.753 219.992 318.098C221.957 319.029 226.198 319.081 314.374 319.081C376.329 319.081 407.307 318.874 408.6 318.564C411.186 317.839 413.617 315.719 414.754 313.133C415.685 311.168 415.737 306.772 415.737 204.271C415.737 105.08 415.685 97.3746 414.858 96.1852C413.875 94.6854 412.686 93.3925 394.068 73.5336C383.932 62.7767 379.846 58.7946 378.398 58.174C376.64 57.5017 367.486 57.3983 299.738 57.3983C245.643 57.3983 222.475 57.5534 221.027 57.9671C217.975 58.7946 214.821 62.3113 214.097 65.6728C213.683 67.5346 213.528 85.0663 213.528 123.75V179.189L212.442 179.086C208.253 178.569 196.203 191.032 184.981 207.581L181.464 212.753V127.163C181.464 46.7448 181.516 41.5215 182.395 39.8148C182.86 38.8322 184.05 37.4876 185.032 36.867L186.791 35.6776H307.03C424.891 35.6776 427.27 35.6776 428.873 36.6602ZM382.846 68.362C394.275 80.1015 410.152 97.3746 410.617 98.6158C410.876 99.3398 411.083 143.66 411.083 205.409V310.91L409.376 312.616C407.98 314.013 407.1 314.375 404.825 314.633C403.325 314.84 361.642 314.892 312.305 314.84C226.353 314.685 222.475 314.633 221.078 313.754C218.079 311.789 218.182 313.392 218.182 262.969V216.631L220.923 213.529C224.336 209.65 225.422 207.633 225.422 205.151C225.422 201.272 223.302 198.221 220.147 197.6L218.441 197.238V131.817C218.441 60.6046 218.286 64.4316 221.285 62.8284C222.371 62.2078 235.093 62.1044 299.635 62.0527H376.691L382.846 68.362ZM120.439 89.5655C121.37 91.0653 124.421 95.4612 127.266 99.3398L132.437 106.425L132.386 117.44C132.334 136.679 131.196 143.247 126.387 151.418C120.077 162.278 110.458 167.088 98.3048 165.588C92.8746 164.967 88.6339 163.157 83.8243 159.589C80.98 157.469 79.0665 156.641 79.0665 157.469C79.0665 158.089 80.8248 161.14 82.066 162.795C83.6692 164.916 88.8925 168.639 91.892 169.777C93.0815 170.294 95.357 170.656 96.9085 170.656H99.7011L100.115 172.57C100.787 175.673 100.477 181.62 99.546 184.464C98.6151 187.205 96.443 189.843 93.8572 191.239C91.3749 192.584 84.3415 192.428 79.9456 190.877C70.9471 187.774 62.5174 179.499 61.6382 172.776C61.4314 171.122 61.5348 170.656 62.414 170.191C64.4309 169.105 65.3618 163.002 65.2583 151.78C65.2066 146.039 64.8963 140.557 64.4826 138.592L63.8103 135.231H59.8282C56.208 135.231 55.7426 135.127 53.9325 133.627C50.8813 131.197 49.3298 127.732 49.3815 123.595C49.4333 117.337 53.0534 112.01 58.0698 110.717C61.2762 109.942 63.5 110.717 66.1892 113.613L68.3613 115.992L71.7745 115.113C80.5662 112.786 97.7876 105.442 104.304 101.202C108.7 98.3572 114.544 92.8753 116.871 89.4621C117.853 88.0658 118.681 86.8763 118.733 86.8763C118.784 86.8763 119.56 88.1175 120.439 89.5655ZM60.6039 171.018C60.2419 171.121 59.6213 171.121 59.311 171.018C58.949 170.863 59.2076 170.759 59.9316 170.759C60.6556 170.759 60.9142 170.863 60.6039 171.018ZM55.0186 172.208C54.4497 172.466 53.6222 172.673 53.2085 172.673C52.7431 172.673 52.7948 172.466 53.4671 172.208C54.036 171.949 54.8634 171.742 55.2772 171.742C55.7426 171.742 55.6909 171.949 55.0186 172.208ZM48.0886 174.328C46.5372 174.845 45.1926 175.207 45.0891 175.104C44.8305 174.845 49.0712 173.345 50.1056 173.345C50.5193 173.294 49.6401 173.759 48.0886 174.328ZM103.218 173.552C103.063 173.707 102.597 173.759 102.235 173.604C101.821 173.449 101.977 173.294 102.545 173.294C103.114 173.242 103.425 173.397 103.218 173.552ZM43.3825 175.983C42.6585 176.293 40.5381 177.327 38.6246 178.258C36.6594 179.189 35.108 179.861 35.108 179.706C35.108 179.293 43.4342 175.31 44.1065 175.362C44.4168 175.362 44.1065 175.621 43.3825 175.983ZM112.423 176.345C113.096 176.655 113.199 176.81 112.682 176.81C112.268 176.81 111.544 176.603 111.13 176.345C110.199 175.724 111.027 175.724 112.423 176.345ZM117.336 178.413C118.319 178.982 118.939 179.396 118.629 179.396C118.371 179.396 117.285 178.982 116.302 178.413C115.319 177.845 114.75 177.431 115.009 177.431C115.319 177.431 116.354 177.845 117.336 178.413ZM121.267 180.223C121.784 180.637 121.991 180.999 121.68 180.999C121.422 180.999 120.698 180.637 120.129 180.223C119.612 179.81 119.405 179.448 119.715 179.448C119.974 179.448 120.698 179.81 121.267 180.223ZM33.5565 180.741C33.5565 180.844 32.8842 181.31 32.005 181.775C30.0398 182.758 29.9364 182.344 31.9016 181.31C33.5048 180.43 33.5565 180.379 33.5565 180.741ZM213.579 183.74C213.528 183.947 213.528 187.205 213.528 190.929V197.807L206.494 200.91C202.616 202.616 199.358 204.323 199.151 204.737C198.996 205.099 199.151 205.823 199.409 206.288C200.289 207.633 203.081 207.116 209.649 204.271C216.527 201.324 219.165 200.962 220.458 202.823C222.164 205.202 221.595 206.288 216.217 211.512C210.166 217.304 205.253 224.079 206.132 225.371C207.27 227.285 208.718 226.716 210.994 223.458C212.235 221.7 213.321 220.303 213.476 220.303C213.683 220.303 213.735 222.889 213.683 226.044C213.58 232.353 213.373 232.819 209.029 237.214C205.512 240.679 198.53 244.351 197.496 243.265C196.617 242.334 181.464 221.803 181.464 221.544C181.464 220.872 190.307 207.581 194.238 202.358C202.047 191.911 213.89 180.534 213.579 183.74ZM130.938 210.736C130.782 211.201 130.524 211.46 130.42 211.305C130.265 211.15 130.317 210.839 130.524 210.529C130.989 209.702 131.3 209.857 130.938 210.736ZM135.282 213.167C135.126 213.58 134.971 213.425 134.971 212.856C134.92 212.287 135.075 211.977 135.23 212.184C135.385 212.339 135.437 212.805 135.282 213.167ZM130.627 214.201C130.472 214.615 130.317 214.459 130.317 213.891C130.265 213.322 130.42 213.011 130.576 213.218C130.731 213.373 130.782 213.839 130.627 214.201ZM135.799 215.235C135.644 215.649 135.489 215.494 135.489 214.925C135.437 214.356 135.592 214.046 135.747 214.253C135.902 214.408 135.954 214.873 135.799 215.235ZM131.144 216.787C130.989 217.149 130.886 216.89 130.886 216.166C130.886 215.442 130.989 215.183 131.144 215.494C131.248 215.856 131.248 216.476 131.144 216.787ZM136.885 219.01C136.885 219.838 136.781 219.786 136.471 218.752C135.902 216.994 135.902 215.649 136.471 216.942C136.73 217.511 136.885 218.442 136.885 219.01ZM56.4666 218.648C56.9321 219.166 57.7078 220.769 58.1215 222.165C59.311 225.992 58.949 226.199 57.7078 222.372C56.8804 219.993 56.208 218.855 55.2772 218.39C54.4497 217.976 54.2946 217.718 54.8117 217.718C55.2772 217.718 56.0012 218.131 56.4666 218.648ZM53.312 218.855C53.0534 219.217 52.6914 219.993 52.5362 220.562C52.2776 221.596 52.2776 221.596 52.2259 220.51C52.2259 219.941 52.4328 219.217 52.7948 218.855C53.6222 218.028 53.9843 218.08 53.312 218.855ZM132.179 221.441C132.024 221.855 131.868 221.7 131.868 221.131C131.817 220.562 131.972 220.252 132.127 220.458C132.282 220.614 132.334 221.079 132.179 221.441ZM180.171 220.82C180.326 221.131 180.119 221.182 179.706 221.027C178.775 220.665 178.62 220.303 179.344 220.303C179.654 220.303 180.016 220.51 180.171 220.82ZM176.034 222.786C175.103 223.561 171.638 225.578 171.638 225.268C171.638 225.113 172.621 224.441 173.862 223.717C176.085 222.372 176.913 222.01 176.034 222.786ZM132.696 224.027C132.541 224.441 132.386 224.285 132.386 223.717C132.334 223.148 132.489 222.837 132.644 223.044C132.799 223.199 132.851 223.665 132.696 224.027ZM54.6566 228.061C54.6566 228.474 54.3463 228.009 53.9843 227.026C53.6222 226.044 53.312 224.854 53.312 224.441C53.312 224.027 53.6222 224.492 53.9843 225.475C54.3463 226.458 54.6566 227.647 54.6566 228.061ZM137.867 225.061C137.712 225.475 137.557 225.32 137.557 224.751C137.505 224.182 137.661 223.872 137.816 224.079C137.971 224.234 138.023 224.699 137.867 225.061ZM133.782 229.871C133.782 231.164 133.678 231.112 133.316 229.354C132.799 226.716 132.799 224.596 133.368 226.768C133.575 227.595 133.782 228.992 133.782 229.871ZM138.385 227.647C138.229 228.009 138.126 227.75 138.126 227.026C138.126 226.302 138.229 226.044 138.385 226.354C138.488 226.716 138.488 227.337 138.385 227.647ZM169.311 226.82C168.07 227.75 165.018 229.405 165.535 228.836C166.053 228.319 169.724 226.044 170.086 226.044C170.242 226.044 169.88 226.406 169.311 226.82ZM138.902 233.336C138.798 234.267 138.695 233.543 138.695 231.681C138.695 229.819 138.798 229.095 138.902 229.974C139.005 230.905 139.005 232.457 138.902 233.336ZM60.9659 230.905C60.9659 231.164 60.7073 231.06 60.4487 230.646C60.1902 230.233 59.9316 229.612 59.9316 229.354C59.9316 229.043 60.1902 229.198 60.4487 229.612C60.7073 230.026 60.9659 230.595 60.9659 230.905ZM56.8286 234.008C56.8286 234.267 56.5701 234.163 56.3115 233.749C56.0529 233.336 55.7943 232.715 55.7943 232.457C55.7943 232.146 56.0529 232.301 56.3115 232.715C56.5701 233.129 56.8286 233.698 56.8286 234.008ZM62.5174 235.042C62.5174 235.301 62.2588 235.197 62.0002 234.784C61.7416 234.37 61.4831 233.749 61.4831 233.491C61.4831 233.181 61.7416 233.336 62.0002 233.749C62.2588 234.163 62.5174 234.732 62.5174 235.042ZM138.902 241.61C138.798 242.851 138.695 241.869 138.695 239.438C138.695 237.008 138.798 236.025 138.902 237.214C139.005 238.456 139.005 240.421 138.902 241.61ZM58.3801 238.145C58.3801 238.404 58.1215 238.3 57.863 237.887C57.6044 237.473 57.3458 236.852 57.3458 236.594C57.3458 236.284 57.6044 236.439 57.863 236.852C58.1215 237.266 58.3801 237.835 58.3801 238.145ZM64.0689 239.18C64.0689 239.438 63.8103 239.335 63.5517 238.921C63.2931 238.507 63.0345 237.887 63.0345 237.628C63.0345 237.318 63.2931 237.473 63.5517 237.887C63.8103 238.3 64.0689 238.869 64.0689 239.18ZM59.4144 240.731C59.4144 240.99 59.1558 240.886 58.8973 240.473C58.6387 240.059 58.3801 239.438 58.3801 239.18C58.3801 238.869 58.6387 239.024 58.8973 239.438C59.1558 239.852 59.4144 240.421 59.4144 240.731ZM66.0858 243.834C66.0858 244.093 65.6721 243.524 65.1032 242.541C64.5343 241.559 64.1206 240.473 64.1206 240.214C64.1206 239.904 64.5343 240.524 65.1032 241.507C65.6721 242.489 66.0858 243.524 66.0858 243.834ZM133.73 244.455C133.627 245.282 133.523 244.61 133.523 243.058C133.523 241.507 133.627 240.835 133.73 241.61C133.834 242.438 133.834 243.679 133.73 244.455ZM60.9142 244.351C60.9142 244.61 60.6039 244.299 60.1902 243.575C59.7764 242.851 59.4661 242.024 59.4661 241.765C59.4661 241.455 59.7764 241.817 60.1902 242.541C60.6039 243.265 60.9142 244.041 60.9142 244.351ZM199.047 245.644C199.668 246.472 200.03 247.196 199.875 247.196C199.771 247.196 199.151 246.472 198.53 245.644C197.91 244.765 197.548 244.093 197.703 244.093C197.806 244.093 198.427 244.765 199.047 245.644ZM138.591 246.523C138.385 247.971 138.281 248.178 138.126 247.299C137.971 246.161 138.281 244.61 138.695 244.61C138.747 244.61 138.747 245.489 138.591 246.523ZM65.31 253.246C67.1718 257.022 68.6199 260.125 68.4647 260.125C68.2061 260.125 61.4831 246.885 61.4831 246.316C61.4831 245.696 61.8451 246.368 65.31 253.246ZM68.1544 248.23C68.7233 249.471 68.7233 249.471 67.9993 248.54C67.5338 247.971 67.1718 247.299 67.1718 246.989C67.1718 246.368 67.4304 246.627 68.1544 248.23ZM133.213 249.109C133.058 249.626 132.954 249.316 132.954 248.488C132.954 247.609 133.058 247.247 133.213 247.558C133.316 247.92 133.316 248.644 133.213 249.109ZM188.859 248.075C187.618 248.178 185.653 248.178 184.463 248.075C183.222 247.971 184.205 247.868 186.636 247.868C189.066 247.868 190.049 247.971 188.859 248.075ZM178.62 248.747C177.792 248.954 176.499 249.161 175.775 249.161C174.637 249.161 174.637 249.109 176.034 248.747C176.913 248.54 178.154 248.333 178.878 248.333C180.016 248.333 180.016 248.385 178.62 248.747ZM194.393 248.747C194.962 249.161 194.755 249.212 193.617 248.954C191.704 248.54 191.29 248.23 192.635 248.23C193.152 248.23 193.979 248.488 194.393 248.747ZM137.867 251.178C137.712 251.695 137.609 251.385 137.609 250.557C137.609 249.678 137.712 249.316 137.867 249.626C137.971 249.988 137.971 250.712 137.867 251.178ZM174.069 249.575C173.913 249.73 173.448 249.781 173.086 249.626C172.672 249.471 172.827 249.316 173.396 249.316C173.965 249.264 174.275 249.419 174.069 249.575ZM132.696 252.729C132.541 253.246 132.437 252.833 132.437 251.85C132.437 250.867 132.541 250.454 132.696 250.919C132.799 251.436 132.799 252.264 132.696 252.729ZM70.7402 253.246C71.3608 254.488 71.7228 255.47 71.5677 255.47C71.3091 255.47 69.2404 251.591 69.2404 251.023C69.2404 250.454 69.5507 250.919 70.7402 253.246ZM137.35 254.798C137.195 255.315 137.092 255.005 137.092 254.177C137.092 253.298 137.195 252.936 137.35 253.246C137.454 253.608 137.454 254.332 137.35 254.798ZM192.841 253.815C193.824 254.281 194.703 255.108 194.807 255.625C195.272 258.004 187.308 261.986 177.016 264.469C172.879 265.451 171.638 265.555 168.794 265.089C164.967 264.52 164.087 264.934 164.553 266.951C164.915 268.347 165.794 268.865 170.345 270.519C174.017 271.864 177.327 274.864 177.327 276.829C177.327 279.053 176.396 280.811 175.258 280.811C174.637 280.811 172.569 279.983 170.604 278.949C166.828 277.036 165.122 276.881 164.191 278.38C163.363 279.725 164.346 280.914 167.294 282C172.052 283.759 174.637 287.741 173.241 291.258C172.465 293.326 170.862 293.119 166.673 290.378C162.691 287.741 160.622 287.482 160.364 289.499C160.209 290.378 160.881 291.361 162.846 293.171C165.122 295.291 165.484 295.912 165.173 296.895C164.087 300.515 161.502 300.877 157.882 297.877C156.485 296.739 155.037 295.809 154.623 295.809C154.21 295.809 152.141 296.171 149.969 296.584C146.556 297.308 145.573 297.308 142.936 296.739L139.884 296.067L139.212 292.188C138.126 285.62 136.006 268.192 136.264 267.934C136.419 267.779 138.54 266.899 141.022 266.02C143.504 265.089 149.814 262.71 155.037 260.693C170.035 254.85 177.327 253.039 186.377 252.936C189.842 252.884 191.497 253.091 192.841 253.815ZM160.26 253.867C159.847 254.126 158.916 254.436 158.192 254.643C157.106 254.901 157.157 254.798 158.45 254.177C160.105 253.401 161.553 253.143 160.26 253.867ZM132.179 255.574C132.024 255.987 131.868 255.832 131.868 255.263C131.817 254.694 131.972 254.384 132.127 254.591C132.282 254.746 132.334 255.212 132.179 255.574ZM154.572 255.987C154.158 256.246 153.589 256.504 153.279 256.504C153.02 256.504 153.124 256.246 153.537 255.987C153.951 255.729 154.572 255.47 154.83 255.47C155.141 255.47 154.985 255.729 154.572 255.987ZM136.833 257.642C136.678 258.004 136.575 257.746 136.575 257.022C136.575 256.298 136.678 256.039 136.833 256.349C136.937 256.711 136.937 257.332 136.833 257.642ZM131.662 258.159C131.506 258.521 131.403 258.263 131.403 257.539C131.403 256.815 131.506 256.556 131.662 256.866C131.765 257.228 131.765 257.849 131.662 258.159ZM149.4 258.056C148.986 258.315 148.417 258.573 148.107 258.573C147.849 258.573 147.952 258.315 148.366 258.056C148.779 257.797 149.4 257.539 149.659 257.539C149.969 257.539 149.814 257.797 149.4 258.056ZM73.8949 259.09C74.2052 259.659 74.3086 260.125 74.2052 260.125C74.05 260.125 73.688 259.659 73.3777 259.09C73.0674 258.521 72.964 258.056 73.0674 258.056C73.2226 258.056 73.5846 258.521 73.8949 259.09ZM136.316 260.228C136.161 260.59 136.057 260.331 136.057 259.607C136.057 258.883 136.161 258.625 136.316 258.935C136.419 259.297 136.419 259.918 136.316 260.228ZM146.814 259.039C146.401 259.297 145.47 259.607 144.746 259.814C143.66 260.073 143.711 259.969 145.004 259.349C146.659 258.573 148.107 258.315 146.814 259.039ZM131.093 260.9C130.886 261.417 130.11 261.624 128.61 261.573L126.387 261.521L128.61 261.314C130.42 261.107 130.782 260.9 130.834 259.969C130.834 259.349 130.989 259.142 131.144 259.504C131.3 259.866 131.248 260.487 131.093 260.9ZM76.6875 263.072C77.5667 264.003 78.0839 264.779 77.877 264.779C77.4116 264.779 75.4464 262.659 74.8258 261.417C74.5155 260.849 74.5155 260.59 74.7223 260.9C74.9809 261.159 75.8601 262.193 76.6875 263.072ZM140.35 261.417C139.522 261.831 138.436 262.141 138.023 262.141C137.609 262.141 138.074 261.779 139.057 261.417C141.436 260.487 142.367 260.538 140.35 261.417ZM136.73 262.297C137.04 262.503 136.833 262.71 136.368 262.71C135.851 262.71 135.437 262.348 135.437 261.831C135.437 261.366 135.592 261.211 135.851 261.469C136.057 261.728 136.471 262.09 136.73 262.297ZM70.5333 263.228C70.9471 264.055 72.0848 265.658 72.964 266.692L74.6189 268.658L73.0674 267.21C71.5677 265.865 68.8267 261.676 69.4473 261.676C69.6025 261.676 70.0679 262.348 70.5333 263.228ZM122.663 262.038C121.991 262.141 120.956 262.141 120.336 262.038C119.663 261.935 120.181 261.831 121.474 261.831C122.766 261.831 123.284 261.935 122.663 262.038ZM18.7657 264.779C19.0243 265.658 18.9726 265.813 18.6623 265.296C18.4037 264.882 17.99 263.952 17.8348 263.228C17.5763 262.348 17.628 262.193 17.9383 262.71C18.1969 263.124 18.6106 264.055 18.7657 264.779ZM115.94 262.555C115.578 262.659 114.957 262.659 114.647 262.555C114.285 262.4 114.544 262.297 115.268 262.297C115.992 262.297 116.25 262.4 115.94 262.555ZM109.734 263.072C109.062 263.176 107.924 263.176 107.148 263.072C106.321 262.969 106.89 262.866 108.286 262.866C109.734 262.866 110.355 262.969 109.734 263.072ZM101.977 263.59C101.046 263.693 99.4943 263.693 98.6151 263.59C97.6842 263.486 98.4082 263.383 100.27 263.383C102.132 263.383 102.856 263.486 101.977 263.59ZM95.5121 264.107C94.6847 264.21 93.4435 264.21 92.6677 264.107C91.8403 264.003 92.5126 263.9 94.0641 263.9C95.6156 263.9 96.2879 264.003 95.5121 264.107ZM87.7547 264.624C86.979 264.727 85.5827 264.727 84.6518 264.624C83.7209 264.52 84.3415 264.417 86.0481 264.417C87.7547 264.417 88.5305 264.52 87.7547 264.624ZM131.3 266.692C131.3 267.313 131.144 267.416 130.886 267.003C130.679 266.692 129.8 266.33 128.972 266.175C127.576 265.968 127.576 265.968 129.386 265.865C130.886 265.813 131.3 266.02 131.3 266.692ZM20.1103 268.141C20.1103 268.399 19.8518 268.296 19.5932 267.882C19.3346 267.468 19.076 266.848 19.076 266.589C19.076 266.279 19.3346 266.434 19.5932 266.848C19.8518 267.261 20.1103 267.83 20.1103 268.141ZM124.214 266.692C123.542 266.796 122.404 266.796 121.629 266.692C120.801 266.589 121.37 266.486 122.766 266.486C124.214 266.486 124.835 266.589 124.214 266.692ZM118.267 267.21C117.75 267.313 116.819 267.313 116.198 267.21C115.526 267.106 115.94 267.003 117.078 267.003C118.215 266.951 118.733 267.054 118.267 267.21ZM111.544 267.727C111.027 267.83 110.096 267.83 109.475 267.727C108.803 267.623 109.217 267.52 110.355 267.52C111.492 267.468 112.009 267.572 111.544 267.727ZM104.562 268.244C103.89 268.347 102.752 268.347 101.977 268.244C101.149 268.141 101.718 268.037 103.114 268.037C104.562 268.037 105.183 268.141 104.562 268.244ZM16.4385 272.278C16.4385 272.536 16.0248 271.967 15.4559 270.985C14.887 270.002 14.4733 268.916 14.4733 268.658C14.4733 268.347 14.887 268.968 15.4559 269.951C16.0248 270.933 16.4385 271.967 16.4385 272.278ZM76.2221 269.33C76.067 269.485 75.6532 269.33 75.2912 268.968C74.8258 268.451 74.8775 268.399 75.6015 268.709C76.1187 268.865 76.3772 269.175 76.2221 269.33ZM96.0293 268.761C95.5121 268.865 94.5812 268.865 93.9606 268.761C93.2883 268.658 93.7021 268.554 94.8398 268.554C95.9776 268.503 96.4947 268.606 96.0293 268.761ZM98.8737 268.761C98.5116 268.865 97.8911 268.865 97.5808 268.761C97.2188 268.606 97.4773 268.503 98.2014 268.503C98.9254 268.503 99.184 268.606 98.8737 268.761ZM131.662 271.605C131.558 272.278 131.455 271.761 131.455 270.468C131.455 269.175 131.558 268.658 131.662 269.278C131.765 269.951 131.765 270.985 131.662 271.605ZM90.5991 269.278C89.9268 269.382 88.8925 269.382 88.2719 269.278C87.5996 269.175 88.1168 269.071 89.4097 269.071C90.7026 269.071 91.2197 269.175 90.5991 269.278ZM83.3589 269.795C82.1177 269.899 80.1525 269.899 78.963 269.795C77.7219 269.692 78.7045 269.589 81.1351 269.589C83.5658 269.589 84.5484 269.692 83.3589 269.795ZM17.4211 274.346C17.266 274.502 16.9557 274.243 16.8005 273.726C16.4902 273.002 16.542 272.95 17.0591 273.416C17.4211 273.778 17.5763 274.191 17.4211 274.346ZM132.334 274.864C132.334 275.846 132.23 276.674 132.127 276.674C132.024 276.674 131.817 275.846 131.713 274.864C131.61 273.881 131.713 273.054 131.92 273.054C132.127 273.054 132.334 273.881 132.334 274.864ZM18.4554 276.415C18.3003 276.57 17.99 276.312 17.8348 275.794C17.5246 275.07 17.5763 275.019 18.0934 275.484C18.4554 275.846 18.6106 276.26 18.4554 276.415ZM26.006 279.518C26.7817 280.914 27.0403 281.638 26.5748 281.069C25.5922 279.932 19.3346 267.313 20.1103 268.141C20.3689 268.399 25.2302 278.07 26.006 279.518ZM20.1103 279.259C20.6792 280.397 21.0412 281.328 20.8861 281.328C20.7827 281.328 20.1621 280.397 19.5932 279.259C19.0243 278.122 18.6623 277.191 18.8175 277.191C18.9209 277.191 19.5415 278.122 20.1103 279.259ZM132.696 280.139C132.541 280.656 132.437 280.242 132.437 279.259C132.437 278.277 132.541 277.863 132.696 278.329C132.799 278.846 132.799 279.673 132.696 280.139ZM133.213 283.759C133.058 284.276 132.954 283.862 132.954 282.88C132.954 281.897 133.058 281.483 133.213 281.949C133.316 282.466 133.316 283.293 133.213 283.759ZM23.5753 285.207C24.6613 287.379 23.627 286.189 22.2307 283.655C21.5584 282.518 21.455 282.052 21.9204 282.621C22.3858 283.19 23.1099 284.328 23.5753 285.207ZM28.3849 283.397C28.6952 283.966 28.7986 284.431 28.6952 284.431C28.54 284.431 28.178 283.966 27.8677 283.397C27.5574 282.828 27.454 282.362 27.5574 282.362C27.7126 282.362 28.0746 282.828 28.3849 283.397ZM29.9364 285.983C30.2467 286.551 30.3501 287.017 30.2467 287.017C30.0915 287.017 29.7295 286.551 29.4192 285.983C29.1089 285.414 29.0055 284.948 29.1089 284.948C29.2641 284.948 29.6261 285.414 29.9364 285.983ZM133.73 286.862C133.575 287.379 133.472 287.069 133.472 286.241C133.472 285.362 133.575 285 133.73 285.31C133.834 285.672 133.834 286.396 133.73 286.862ZM34.9011 293.068C35.6768 294.516 32.2636 290.327 31.2293 288.775C30.7638 287.999 30.6087 287.586 30.919 287.741C31.2293 287.948 34.6425 292.499 34.9011 293.068ZM134.247 290.482C134.092 290.999 133.989 290.689 133.989 289.861C133.989 288.982 134.092 288.62 134.247 288.93C134.351 289.292 134.351 290.016 134.247 290.482ZM27.6092 291.464C28.0746 292.24 28.2297 292.654 27.9194 292.499C27.3506 292.137 22.7761 284.431 23.1381 284.431C23.2932 284.431 27.092 290.74 27.6092 291.464ZM34.9011 293.068C35.6768 294.102 36.0906 294.774 35.7285 294.567C35.0562 294.154 32.8325 291.154 33.1945 291.154C33.3496 291.154 34.0736 292.033 34.9011 293.068ZM134.764 294.102C134.609 294.619 134.506 294.309 134.506 293.481C134.506 292.602 134.609 292.24 134.764 292.55C134.868 292.912 134.868 293.636 134.764 294.102ZM29.4709 294.102C30.1432 294.929 30.0915 294.981 29.3158 294.309C28.4366 293.636 28.178 293.223 28.5918 293.223C28.6952 293.223 29.1089 293.636 29.4709 294.102ZM31.0224 296.171C31.6947 296.998 31.643 297.05 30.8673 296.377C30.3501 296.015 29.9364 295.602 29.9364 295.498C29.9364 295.085 30.3501 295.343 31.0224 296.171ZM44.1065 303.256C43.9514 303.307 39.9175 299.48 38.4695 297.877L35.9354 295.033L38.7281 297.722C40.2795 299.222 44.21 303.152 44.1065 303.256ZM135.282 296.429C135.126 296.843 134.971 296.688 134.971 296.119C134.92 295.55 135.075 295.24 135.23 295.447C135.385 295.602 135.437 296.067 135.282 296.429ZM37.1766 303.307C39.8658 306.203 40.2278 306.669 38.2626 304.859C36.7629 303.411 34.5908 301.084 33.4013 299.687C30.9707 296.688 31.8499 297.515 37.1766 303.307ZM135.799 299.532C135.644 299.894 135.54 299.636 135.54 298.911C135.54 298.187 135.644 297.929 135.799 298.239C135.902 298.601 135.902 299.222 135.799 299.532ZM47.2612 305.531C48.1404 306.203 48.3472 306.514 47.7266 306.203C47.106 305.893 45.5029 304.6 44.1065 303.256C42.4516 301.704 42.2965 301.446 43.6411 302.583C44.7788 303.566 46.4337 304.859 47.2612 305.531ZM132.489 302.376C132.127 302.48 131.403 302.48 130.938 302.376C130.42 302.221 130.731 302.118 131.558 302.118C132.437 302.118 132.799 302.221 132.489 302.376ZM129.076 302.842C128.921 302.997 128.455 303.049 128.093 302.894C127.679 302.738 127.835 302.583 128.403 302.583C128.972 302.532 129.283 302.687 129.076 302.842ZM126.283 303.411C125.921 303.514 125.3 303.514 124.99 303.411C124.628 303.256 124.887 303.152 125.611 303.152C126.335 303.152 126.593 303.256 126.283 303.411ZM121.732 304.083C121.577 304.342 120.905 304.6 120.284 304.549C119.25 304.497 119.25 304.445 120.439 304.083C121.163 303.876 121.784 303.669 121.887 303.618C121.991 303.566 121.887 303.773 121.732 304.083ZM123.904 303.876C123.749 304.031 123.284 304.083 122.922 303.928C122.508 303.773 122.663 303.618 123.232 303.618C123.801 303.566 124.111 303.721 123.904 303.876ZM118.526 304.962C118.164 305.066 117.543 305.066 117.233 304.962C116.871 304.807 117.129 304.704 117.853 304.704C118.577 304.704 118.836 304.807 118.526 304.962ZM115.94 305.479C115.578 305.583 114.957 305.583 114.647 305.479C114.285 305.324 114.544 305.221 115.268 305.221C115.992 305.221 116.25 305.324 115.94 305.479ZM112.837 305.997C112.475 306.1 111.854 306.1 111.544 305.997C111.182 305.841 111.441 305.738 112.165 305.738C112.889 305.738 113.147 305.841 112.837 305.997ZM54.1911 308.996C55.2254 309.41 55.6909 309.72 55.2772 309.72C54.398 309.772 49.0712 307.393 49.0712 306.927C49.0712 306.772 49.7953 307.031 50.7262 307.496C51.6053 307.962 53.1568 308.634 54.1911 308.996ZM107.148 307.031C106.786 307.134 106.166 307.134 105.855 307.031C105.493 306.876 105.752 306.772 106.476 306.772C107.2 306.772 107.458 306.876 107.148 307.031ZM104.045 307.548C103.683 307.651 103.063 307.651 102.752 307.548C102.39 307.393 102.649 307.289 103.373 307.289C104.097 307.289 104.356 307.393 104.045 307.548ZM42.9171 308.582C43.5894 309.41 43.5376 309.462 42.7619 308.789C41.8827 308.117 41.6242 307.703 42.0379 307.703C42.1413 307.703 42.555 308.117 42.9171 308.582ZM98.9771 308.22C98.8219 308.479 97.8911 308.686 97.0119 308.686L95.357 308.582L97.167 308.22C98.1496 308.013 99.0288 307.807 99.1322 307.755C99.2357 307.755 99.1322 307.91 98.9771 308.22ZM101.459 308.065C101.097 308.169 100.477 308.169 100.167 308.065C99.8045 307.91 100.063 307.807 100.787 307.807C101.511 307.807 101.77 307.91 101.459 308.065ZM127.007 308.531C126.852 308.686 126.387 308.737 126.025 308.582C125.611 308.427 125.766 308.272 126.335 308.272C126.904 308.22 127.214 308.375 127.007 308.531ZM94.4778 309.1C93.9606 309.203 93.1332 309.203 92.6677 309.1C92.1506 308.944 92.5643 308.841 93.5469 308.841C94.5295 308.841 94.9432 308.944 94.4778 309.1ZM124.214 309.1C123.852 309.203 123.232 309.203 122.922 309.1C122.56 308.944 122.818 308.841 123.542 308.841C124.266 308.841 124.525 308.944 124.214 309.1ZM90.5991 309.617C89.9268 309.72 88.8925 309.72 88.2719 309.617C87.5996 309.513 88.1168 309.41 89.4097 309.41C90.7026 309.41 91.2197 309.513 90.5991 309.617ZM58.0181 310.134C57.6561 310.237 57.0355 310.237 56.7252 310.134C56.3632 309.979 56.6218 309.875 57.3458 309.875C58.0698 309.875 58.3284 309.979 58.0181 310.134ZM86.4618 310.134C86.0998 310.237 85.3758 310.237 84.9104 310.134C84.3932 309.979 84.7035 309.875 85.531 309.875C86.4101 309.875 86.7721 309.979 86.4618 310.134ZM119.043 310.134C118.681 310.237 118.06 310.237 117.75 310.134C117.388 309.979 117.647 309.875 118.371 309.875C119.095 309.875 119.353 309.979 119.043 310.134ZM60.6039 310.651C60.2419 310.754 59.6213 310.754 59.311 310.651C58.949 310.496 59.2076 310.392 59.9316 310.392C60.6556 310.392 60.9142 310.496 60.6039 310.651ZM81.8074 310.651C81.1351 310.754 80.1008 310.754 79.4802 310.651C78.8079 310.548 79.3251 310.444 80.618 310.444C81.9108 310.444 82.428 310.548 81.8074 310.651ZM116.457 310.651C116.095 310.754 115.474 310.754 115.164 310.651C114.802 310.496 115.061 310.392 115.785 310.392C116.509 310.392 116.767 310.496 116.457 310.651ZM69.137 311.168C67.7407 311.272 65.5686 311.272 64.224 311.168C62.8277 311.065 63.9654 311.013 66.6547 311.013C69.3439 311.013 70.4816 311.065 69.137 311.168ZM75.6015 311.168C74.9292 311.272 73.7914 311.272 73.0157 311.168C72.1883 311.065 72.7571 310.961 74.1535 310.961C75.6015 310.961 76.2221 311.065 75.6015 311.168ZM113.871 311.168C113.509 311.272 112.889 311.272 112.578 311.168C112.216 311.013 112.475 310.91 113.199 310.91C113.923 310.91 114.182 311.013 113.871 311.168ZM48.2955 312.254C48.1404 312.409 47.7266 312.254 47.3646 311.892C46.8992 311.375 46.9509 311.323 47.6749 311.634C48.1921 311.789 48.4507 312.099 48.2955 312.254ZM110.251 311.685C109.889 311.789 109.269 311.789 108.958 311.685C108.596 311.53 108.855 311.427 109.579 311.427C110.303 311.427 110.561 311.53 110.251 311.685ZM107.665 312.202C107.303 312.306 106.683 312.306 106.372 312.202C106.01 312.047 106.269 311.944 106.993 311.944C107.717 311.944 107.976 312.047 107.665 312.202ZM51.3985 313.806C51.2433 313.961 50.8296 313.806 50.4676 313.444C50.0021 312.926 50.0539 312.875 50.7779 313.185C51.295 313.34 51.5536 313.651 51.3985 313.806ZM101.046 313.392C99.908 313.651 97.3739 313.909 95.357 314.064L91.7369 314.323L95.8741 313.651C100.58 312.926 104.614 312.72 101.046 313.392ZM56.0529 314.943C56.7252 315.202 56.7769 315.409 56.3115 315.409C55.8978 315.409 55.0703 315.202 54.5014 314.943C53.8291 314.685 53.7774 314.478 54.2428 314.478C54.6566 314.478 55.484 314.685 56.0529 314.943ZM90.5991 314.788C90.2371 314.892 89.6165 314.892 89.3062 314.788C88.9442 314.633 89.2028 314.53 89.9268 314.53C90.6508 314.53 90.9094 314.633 90.5991 314.788ZM86.2033 315.305C85.6861 315.409 84.8587 315.409 84.3932 315.305C83.8761 315.15 84.2898 315.047 85.2724 315.047C86.255 315.047 86.6687 315.15 86.2033 315.305ZM60.0867 315.823C59.7247 315.926 59.0007 315.926 58.5353 315.823C58.0181 315.667 58.3284 315.564 59.1558 315.564C60.035 315.564 60.397 315.667 60.0867 315.823ZM82.5832 315.823C82.066 315.926 81.1351 315.926 80.5145 315.823C79.8422 315.719 80.2559 315.616 81.3937 315.616C82.5314 315.564 83.0486 315.667 82.5832 315.823ZM66.5512 316.34C65.4652 316.443 63.7068 316.443 62.6725 316.34C61.5865 316.236 62.4657 316.133 64.586 316.133C66.7064 316.133 67.5855 316.236 66.5512 316.34ZM76.8427 316.34C75.8084 316.443 74.1535 316.443 73.2226 316.34C72.3434 316.236 73.2226 316.133 75.1878 316.133C77.2047 316.133 77.9287 316.236 76.8427 316.34ZM13.7493 341.112C13.5941 341.267 13.1287 341.319 12.7667 341.163C12.353 341.008 12.5081 340.853 13.077 340.853C13.6459 340.801 13.9562 340.957 13.7493 341.112ZM40.021 341.319C39.8658 341.577 39.4521 341.836 39.1935 341.836C38.8832 341.836 38.8315 341.577 38.9866 341.319C39.1418 341.008 39.5555 340.801 39.8141 340.801C40.1244 340.801 40.1761 341.008 40.021 341.319ZM322.338 357.402C324.045 358.747 324.252 361.953 322.648 363.556C321.666 364.539 320.942 364.591 306.772 364.591C292.239 364.591 291.929 364.591 290.74 363.453C289.085 361.901 289.136 359.264 290.843 357.609L292.084 356.316H306.513C320.321 356.316 320.993 356.368 322.338 357.402Z" fill="black"/>
<path d="M373.434 78.2916C373.589 93.3409 373.641 94.1167 374.675 95.513C375.244 96.2887 376.537 97.4782 377.468 98.0988C379.174 99.2882 379.381 99.2882 394.741 99.1848L410.307 99.0814L394.534 98.7711C377.985 98.5125 377.312 98.4091 375.709 96.0819C374.727 94.7373 374.675 94.1167 375.451 94.1167C375.709 94.1167 375.864 94.3235 375.709 94.5821C375.399 95.0475 376.588 96.237 378.295 97.1679C379.226 97.5816 379.588 97.5299 380.105 96.8576C380.726 96.1336 380.674 96.0819 379.743 96.3922C378.502 96.7542 376.847 96.2887 377.209 95.6681C377.571 95.0993 375.554 93.4444 374.934 93.8581C374.572 94.0649 374.468 93.5478 374.572 92.4618C374.675 91.5309 374.675 90.5483 374.52 90.2897C374.106 89.6174 374.054 85.8421 374.468 85.8421C374.675 85.8421 374.882 86.3593 374.985 86.9799C375.14 88.0659 375.192 88.0659 375.916 87.135C376.382 86.5661 376.433 86.3076 376.071 86.5661C375.658 86.773 375.399 86.6179 375.399 86.1524C375.399 85.687 375.192 85.325 374.934 85.325C374.675 85.325 374.52 84.3424 374.572 83.1529C374.623 81.136 374.778 80.9291 376.175 80.6188C377.157 80.4119 377.364 80.2568 376.692 80.2051C375.864 80.1534 375.813 80.0499 376.382 79.6879C376.795 79.4293 377.468 79.3259 377.933 79.4811C378.554 79.6879 378.605 79.6362 378.088 79.2742C377.364 78.7053 377.83 76.8953 378.554 77.3607C378.812 77.5159 378.864 77.9296 378.657 78.2399C378.45 78.6019 378.761 78.4985 379.278 78.0847C381.657 76.223 382.639 75.2921 382.639 74.8783C382.639 74.6198 382.019 74.9818 381.243 75.7058C380.467 76.4298 379.64 76.8436 379.433 76.7401C379.174 76.585 379.381 76.1195 379.898 75.7058C380.415 75.3438 380.571 74.9818 380.26 74.9818C379.433 74.9818 376.433 78.1364 376.744 78.7053C377.002 79.0673 376.226 79.3259 375.244 79.1708C374.985 79.1191 374.985 79.3776 375.192 79.6879C375.399 80.0499 375.296 80.2051 374.882 80.0499C374.21 79.8431 373.848 74.4646 374.52 74.4646C374.727 74.4646 375.14 74.4646 375.399 74.4646C375.709 74.4646 375.916 74.8266 375.916 75.2921C375.916 75.861 376.175 76.0161 376.744 75.8092C377.209 75.6541 377.675 75.4989 377.778 75.4989C378.502 75.4989 377.83 74.4646 377.106 74.4646C375.606 74.4129 374.468 73.2234 374.365 71.6202C374.158 68.7242 374.313 68.2587 375.554 68.2587C376.64 68.3104 376.64 68.3104 375.709 69.0345C375.14 69.4482 374.83 69.9136 374.985 70.1205C375.451 70.5859 377.468 68.6724 377.106 68.1036C376.95 67.7933 377.054 67.7416 377.364 67.9484C377.726 68.1553 377.985 68.0519 377.985 67.7933C377.985 67.483 378.347 67.2244 378.761 67.2244C379.174 67.2244 379.536 67.483 379.536 67.7416C379.536 68.0519 380.105 68.8793 380.777 69.5516C381.553 70.3274 381.812 70.9997 381.553 71.4651C381.191 71.9823 381.088 71.9823 381.088 71.3617C381.036 70.9479 380.777 71.1548 380.519 71.8271C380.26 72.4994 380.157 73.1717 380.312 73.3269C380.467 73.482 380.571 73.3269 380.571 73.0166C380.571 72.6546 380.777 72.396 381.036 72.396C381.295 72.396 381.398 72.9131 381.295 73.5337C381.191 74.206 381.191 74.4129 381.398 74.0509C381.553 73.7406 381.863 73.5337 382.07 73.6889C382.329 73.7923 382.432 73.3269 382.329 72.6546C382.277 71.9305 382.432 71.3617 382.691 71.3617C383.622 71.3617 382.794 69.3965 381.036 67.3278C379.226 65.2075 377.675 64.2249 379.071 66.0349C379.64 66.8107 379.64 66.8624 379.019 66.3452C378.502 65.8281 378.192 65.8798 377.778 66.4487C377.157 67.2244 374.727 67.7416 374.52 67.0692C374.416 66.8624 374.365 66.1384 374.365 65.4143C374.365 64.38 374.623 64.1214 375.606 64.1214C376.278 64.1214 377.002 64.5352 377.157 65.0006C377.416 65.6212 377.675 65.6729 378.088 65.2592C378.967 64.38 377.623 62.9837 376.278 63.3974C375.502 63.656 375.399 63.5526 375.709 63.0354C376.02 62.4148 375.968 62.4148 375.244 63.0354C374.675 63.5009 374.365 63.5526 374.365 63.1388C374.365 62.8285 374.106 62.57 373.848 62.57C373.486 62.57 373.33 67.6381 373.434 78.2916ZM382.122 69.293C382.122 69.5516 381.863 69.8102 381.553 69.8102C381.295 69.8102 381.191 69.5516 381.346 69.293C381.501 68.9827 381.76 68.7759 381.915 68.7759C382.019 68.7759 382.122 68.9827 382.122 69.293Z" fill="black"/>
<path d="M374.984 66.1899C374.984 66.9139 375.088 67.1725 375.243 66.8104C375.346 66.5001 375.346 65.8796 375.243 65.5175C375.088 65.2073 374.984 65.4658 374.984 66.1899Z" fill="black"/>
<path d="M376.225 65.6211C376.018 65.8796 376.122 66.2416 376.38 66.3968C376.639 66.6037 377.001 66.5002 377.156 66.2416C377.363 65.9831 377.26 65.6211 377.001 65.4659C376.742 65.259 376.38 65.3625 376.225 65.6211Z" fill="black"/>
<path d="M378.14 68.6207C377.106 68.9827 377.364 70.2756 378.398 70.1204C378.864 70.017 379.226 69.8101 379.174 69.6033C378.916 68.6207 378.709 68.4138 378.14 68.6207Z" fill="black"/>
<path d="M379.277 71.3095C378.967 72.3955 376.95 73.1713 376.95 72.2404C376.95 71.8784 376.692 71.9818 376.433 72.3955C376.071 72.9644 376.174 73.2747 376.847 73.4815C377.726 73.7918 380.053 71.8784 380.053 70.7923C380.053 70.0166 379.639 70.2752 379.277 71.3095Z" fill="black"/>
<path d="M383.88 70.6894C384.087 71.0515 384.035 71.3618 383.777 71.3618C383.467 71.3618 383.156 71.672 383.001 72.0858C382.846 72.4478 383.001 72.7581 383.311 72.7581C385.328 72.7064 386.259 72.9649 385.949 73.4821C385.794 73.7924 385.07 73.8958 384.397 73.7407C383.673 73.5338 383.156 73.6373 383.156 73.9475C383.156 74.2061 383.415 74.4647 383.673 74.4647C383.984 74.4647 384.191 74.9301 384.191 75.499C384.191 76.0679 383.88 76.5333 383.467 76.5333C383.105 76.5333 382.174 76.9988 381.501 77.5677C380.777 78.0848 380.053 78.3951 379.846 78.24C379.691 78.0848 379.536 78.1883 379.536 78.4985C379.536 78.8088 380.002 79.0157 380.519 78.964C381.088 78.964 381.45 78.7571 381.294 78.5503C381.191 78.3434 381.605 77.9814 382.225 77.7745C384.811 76.8954 385.277 77.0505 383.932 78.3951C383.363 78.964 383.156 79.0157 383.156 78.5503C383.156 78.1883 383.001 78.0331 382.846 78.24C382.329 78.7571 383.363 79.8949 384.449 79.9466C385.018 79.9983 385.897 80.2052 386.414 80.412C387.5 80.8775 387.552 80.1535 386.518 78.8088C385.897 78.0848 385.794 78.0331 386.052 78.7054C386.259 79.3777 386.104 79.4811 385.277 79.2743C384.501 79.0674 384.346 78.8088 384.708 78.1365C384.966 77.6711 385.483 76.5333 385.845 75.6025C386.207 74.7233 386.725 73.9475 386.983 73.9475C387.19 73.9475 387.138 73.5855 386.776 73.1718C386.414 72.7581 385.794 72.3961 385.38 72.3961C384.966 72.3961 384.759 72.1892 384.915 71.9306C385.07 71.672 384.811 71.1549 384.346 70.7929C383.725 70.2757 383.622 70.2757 383.88 70.6894ZM385.742 74.6716C385.742 74.8267 385.535 75.0853 385.225 75.2404C384.966 75.3956 384.708 75.2922 384.708 75.0336C384.708 74.7233 384.966 74.4647 385.225 74.4647C385.535 74.4647 385.742 74.5681 385.742 74.6716Z" fill="black"/>
<path d="M376.846 71.2064C377.156 71.3098 377.777 71.3098 378.139 71.2064C378.449 71.0512 378.191 70.9478 377.467 70.9478C376.743 70.9478 376.484 71.0512 376.846 71.2064Z" fill="black"/>
<path d="M379.019 73.9472C379.019 74.2058 379.277 74.4644 379.587 74.4644C379.846 74.4644 379.949 74.2058 379.794 73.9472C379.639 73.6369 379.381 73.43 379.225 73.43C379.122 73.43 379.019 73.6369 379.019 73.9472Z" fill="black"/>
<path d="M387.086 75.447C387.345 76.4296 387.241 76.6364 386.621 76.3779C386.052 76.171 385.897 76.2744 386.052 76.7916C386.466 77.8776 387.81 78.1879 387.81 77.2053C387.81 76.533 387.965 76.4813 388.431 76.9467C388.793 77.3087 389.517 77.5673 390.034 77.5673C390.913 77.5673 390.861 77.3605 389.568 76.1193C388.741 75.3435 387.914 74.9298 387.758 75.1884C387.552 75.3953 387.293 75.2918 387.086 74.9298C386.931 74.5161 386.931 74.7747 387.086 75.447Z" fill="black"/>
<path d="M375.244 76.8435C375.554 77.6192 376.433 77.8261 376.433 77.1021C376.433 76.8435 376.071 76.5332 375.709 76.3781C375.192 76.1712 375.037 76.3263 375.244 76.8435Z" fill="black"/>
<path d="M389.776 78.9639C390.345 79.9983 390.035 81.1877 389.259 81.1877C388.949 81.1877 388.845 80.7223 389 80.1534C389.155 79.4811 389 79.1191 388.535 79.1191C388.173 79.1191 387.966 79.4294 388.121 79.7914C388.276 80.2051 387.811 80.7223 387.087 81.0843C386.104 81.498 385.742 81.498 385.587 81.0326C385.432 80.5671 385.173 80.5671 384.553 81.0843C384.087 81.498 383.467 81.6532 383.156 81.4463C382.277 80.9292 382.588 81.9635 383.622 83.2047C384.191 83.877 384.501 84.7044 384.346 85.1181C384.191 85.5319 384.346 85.8422 384.656 85.8422C384.966 85.8422 385.225 85.687 385.225 85.4284C385.225 85.2216 385.794 84.3941 386.57 83.6184C387.294 82.8426 387.759 82.0152 387.604 81.7566C387.449 81.5497 387.914 81.4463 388.587 81.6015C389.466 81.7566 389.983 81.5497 390.19 80.9809C390.655 79.7397 392.103 79.9983 393.551 81.498C394.741 82.8426 394.741 82.8426 393.655 82.1703C392.982 81.7566 392.465 81.2912 392.465 81.0843C392.465 80.8257 392 80.9292 391.431 81.2912C390.707 81.7566 390.604 82.0152 391.069 82.3255C391.534 82.6358 391.534 82.7392 391.069 82.7392C390.707 82.7392 390.397 82.9978 390.397 83.2564C390.397 83.5667 390.707 83.7735 391.069 83.7218C392.569 83.5149 392.982 83.877 392.982 85.1699C392.982 86.3076 392.879 86.4628 392.465 85.8422C392.052 85.2216 391.948 85.2733 391.948 86.2042C391.948 86.9282 391.638 87.3936 391.172 87.3936C390.759 87.3936 390.397 87.6522 390.397 87.9625C390.397 88.2728 390.759 88.3762 391.224 88.2211C391.845 87.9625 392 88.1177 391.741 88.7383C391.534 89.2554 391.69 89.4623 392.052 89.3588C392.362 89.2554 392.879 88.428 393.189 87.5488C393.655 86.2042 393.862 86.049 394.43 86.6696C394.999 87.2902 394.948 87.4454 394.275 87.7039C393.81 87.9108 393.551 88.3762 393.706 88.7383C393.862 89.1003 393.5 89.5657 392.931 89.7209C392.362 89.9277 391.948 90.1863 392.103 90.2897C392.207 90.4449 392.931 90.2897 393.655 90.0312C394.586 89.6691 394.948 89.2554 394.741 88.6865C394.534 88.2728 394.689 87.9108 395.051 87.9108C395.465 87.9108 395.568 88.3762 395.361 89.2037C395.155 89.9277 395.258 90.4966 395.568 90.4966C395.827 90.4966 396.085 90.1346 396.085 89.7209C396.085 89.3071 396.344 88.9451 396.603 88.9451C396.913 88.9451 397.12 89.4106 397.12 89.9794C397.12 90.5483 397.327 91.0138 397.585 91.0138C397.895 91.0138 397.895 90.3932 397.585 89.4623C397.275 88.5831 396.758 88.0659 396.447 88.2728C396.137 88.428 396.085 88.3245 396.292 88.0142C396.758 87.2385 398.775 87.4454 398.464 88.2728C398.309 88.6348 398.619 89.152 399.085 89.4106C399.654 89.7726 399.706 89.9794 399.292 89.9794C398.93 89.9794 398.775 90.238 398.93 90.5483C399.188 90.9103 399.602 90.8069 400.223 90.238C400.998 89.5657 401.205 89.5657 401.722 90.1863C402.395 91.0138 401.516 91.5309 399.447 91.5309C397.947 91.5309 397.637 91.9964 398.206 93.341C398.671 94.2719 398.671 94.2719 398.464 93.1858C398.309 92.2032 398.464 92.0481 399.757 92.0481C400.585 92.0481 401.257 92.3584 401.309 92.6687C401.309 93.0307 401.516 92.8755 401.774 92.3066C402.188 91.324 402.24 91.3758 402.24 92.5135C402.291 93.5478 402.395 93.5995 403.067 93.0824C403.584 92.6169 403.843 92.6169 403.843 93.0307C403.843 93.5478 403.429 93.703 402.498 93.5478C402.343 93.5478 401.671 93.8581 400.998 94.3236C400.326 94.789 399.395 94.9959 398.981 94.8407C398.464 94.6339 398.154 94.789 398.154 95.3062C398.154 95.7199 398.413 96.1853 398.723 96.2888C399.033 96.3922 398.723 96.7542 397.999 97.0645C397.016 97.53 396.447 97.4782 395.361 96.9611C394.224 96.3405 394.017 96.3405 394.017 97.0128C394.017 97.4265 394.534 97.7368 395.206 97.7885C395.827 97.7885 396.758 97.892 397.275 97.9954C397.74 98.0988 398.154 97.9437 398.154 97.7368C398.154 97.4782 398.619 97.3748 399.24 97.4782C399.964 97.6334 400.223 97.4782 400.068 97.0128C399.654 95.9785 400.481 95.0476 401.929 94.9959C402.653 94.9442 403.119 94.7373 402.964 94.4787C402.86 94.2719 403.067 94.1167 403.481 94.1167C405.084 94.1167 404.774 92.5652 402.757 90.2897C401.567 88.9968 400.43 88.0142 400.171 88.2211C399.912 88.3762 399.706 88.1177 399.706 87.6522C399.706 87.1868 399.499 86.9282 399.24 87.1351C398.981 87.2902 398.361 87.0316 397.947 86.5662C397.482 86.1525 397.12 85.9973 397.12 86.2559C397.12 86.5145 396.551 86.6179 395.827 86.4628C395.103 86.3593 394.534 85.9456 394.534 85.5836C394.534 84.7561 395.827 83.6701 396.241 84.1355C396.447 84.2907 396.344 84.7561 396.034 85.1699C395.62 85.6353 395.62 85.8422 395.982 85.8422C396.292 85.8422 396.706 85.5836 396.913 85.2216C397.171 84.8078 397.482 84.963 397.947 85.5836C398.361 86.1007 398.775 86.411 398.93 86.3076C399.085 86.1525 398.464 85.3767 397.637 84.5493C396.292 83.2564 395.93 83.1529 394.793 83.6701C394.017 84.0321 393.5 84.0838 393.5 83.7735C393.5 83.4632 393.189 83.2564 392.776 83.2564C392.362 83.2564 391.948 82.8944 391.741 82.4806C391.379 81.498 391.896 81.498 392.982 82.4806C393.5 82.9461 394.224 83.1529 394.741 82.9461C395.517 82.6358 395.413 82.3772 393.965 80.8774C393.034 79.9466 392.103 79.2742 391.845 79.4294C391.586 79.5845 391.483 79.4294 391.534 79.0157C391.638 78.6537 391.172 78.2916 390.5 78.1882C389.466 78.0331 389.362 78.1365 389.776 78.9639ZM385.432 82.0152C385.639 82.4806 385.535 82.6875 385.173 82.4289C384.811 82.2221 384.656 82.3772 384.811 82.7909C384.966 83.2047 385.38 83.4632 385.691 83.3598C386.053 83.3081 386.208 83.4632 386.001 83.7735C385.846 84.0321 385.484 84.2907 385.225 84.2907C384.604 84.2907 384.036 82.3772 384.449 81.7049C384.863 80.9809 385.07 81.0326 385.432 82.0152Z" fill="black"/>
<path d="M379.484 80.1013C379.898 80.3599 380.053 80.9287 379.898 81.3425C379.743 81.8079 379.898 82.2734 380.26 82.3768C380.777 82.5837 380.88 82.3251 380.725 81.6528C380.57 81.1356 380.725 80.6702 381.036 80.6702C381.346 80.6702 381.605 81.1873 381.605 81.8079C381.605 83.1525 381.863 82.894 382.277 81.1873C382.587 79.9979 382.432 79.8944 380.674 79.791C379.381 79.6876 379.019 79.791 379.484 80.1013Z" fill="black"/>
<path d="M375.398 81.7048C374.984 81.9634 374.777 82.3254 374.932 82.4806C375.139 82.6357 375.553 82.4288 375.915 81.9634C376.639 81.0842 376.484 80.9808 375.398 81.7048Z" fill="black"/>
<path d="M376.95 82.7389C376.95 83.0492 377.312 83.2561 377.726 83.2561C378.14 83.2561 378.502 83.1527 378.502 83.0492C378.502 82.9458 378.14 82.7389 377.726 82.5321C377.312 82.3769 376.95 82.4804 376.95 82.7389Z" fill="black"/>
<path d="M388.224 82.7908C387.707 83.0494 387.345 83.8251 387.397 84.4457C387.397 85.0663 387.293 86.2041 387.086 86.9281C386.88 87.7038 386.931 88.4278 387.19 88.6347C387.5 88.7899 387.604 89.4622 387.448 90.031L387.138 91.1171L386.517 89.9793C386 88.9967 385.845 88.945 385.587 89.669C385.38 90.1345 385.431 90.4965 385.69 90.4965C385.897 90.4965 386.104 91.3239 386.155 92.3065C386.207 93.8063 386.052 94.1166 385.121 94.1166C384.242 94.1166 384.19 94.2717 384.707 94.8923C385.018 95.3061 385.173 95.8749 384.966 96.1852C384.811 96.4438 384.914 96.7024 385.173 96.7024C385.483 96.7024 385.742 96.2369 385.742 95.6681C385.742 95.0992 386.104 94.6338 386.517 94.6338C386.931 94.6338 387.293 94.2717 387.293 93.858C387.293 92.9271 387.552 92.9271 388.845 93.5994C389.517 93.9615 389.931 93.9615 390.138 93.5994C390.344 93.2891 390.293 93.0823 390.034 93.134C389.052 93.2891 388.328 93.0306 388.328 92.5134C388.328 92.2031 388.793 92.048 389.362 92.2031C389.879 92.3583 390.293 92.2031 390.241 91.9445C390.189 91.6342 390.448 91.2722 390.81 91.1688C391.224 91.0136 391.327 91.2205 391.12 91.7894C390.862 92.4617 391.017 92.5651 392.258 92.2548C394.327 91.7894 394.895 91.1171 393.241 91.1171C392.465 91.1171 391.637 90.8585 391.431 90.5482C391.172 90.0828 390.862 90.0828 390.293 90.7033C389.569 91.4274 389.362 91.3757 388.534 90.4448C387.604 89.4105 387.604 89.4105 388.948 89.7207C390.396 90.0828 391.431 89.2553 390.086 88.7381C389.62 88.5313 389.362 88.0658 389.569 87.6004C389.724 87.1867 389.672 86.9281 389.414 87.135C389.155 87.2901 388.793 87.0832 388.638 86.7729C388.483 86.4109 388.431 86.7729 388.638 87.6004C388.896 88.945 388.793 89.0484 388.069 88.4278C386.88 87.4452 387.914 84.8595 389.517 84.8077C389.776 84.8077 389.776 85.118 389.569 85.4283C389.258 85.9455 389.362 85.9455 389.982 85.4283C390.706 84.8595 390.81 84.9112 390.551 85.9455C390.344 87.0832 390.344 87.0832 391.12 86.1523C392.31 84.6526 392.206 83.6183 390.965 84.2906C390.241 84.6526 389.827 84.6526 389.62 84.2389C389.414 83.9286 388.896 83.8251 388.483 84.032C387.81 84.2389 387.759 84.1871 388.328 83.5148C388.69 83.1011 389.155 82.8942 389.414 83.0494C389.672 83.2045 389.879 83.0494 389.879 82.7908C389.879 82.1185 389.362 82.1185 388.224 82.7908ZM388.172 91.8928C387.707 92.3583 387.138 92.5651 386.931 92.3583C386.724 92.1514 386.88 91.7894 387.293 91.5308C388.586 90.7033 389.103 90.9619 388.172 91.8928Z" fill="black"/>
<path d="M378.345 83.6179C376.535 84.5488 376.742 84.8074 379.224 84.9108C380.259 84.9626 381.086 85.2211 381.086 85.5314C381.086 85.8417 381.293 85.8417 381.655 85.4797C381.965 85.1694 382.586 85.0143 382.948 85.1694C383.465 85.3246 383.569 85.1694 383.362 84.6523C383 83.6179 381.603 83.1008 381.603 83.9282C381.603 84.342 381.397 84.2385 381.086 83.7731C380.776 83.2559 380.569 83.2042 380.569 83.6179C380.569 83.9799 380.311 84.2902 380 84.2902C379.69 84.2902 379.535 83.9282 379.742 83.5145C379.897 83.1008 379.949 82.7388 379.897 82.7905C379.845 82.8422 379.121 83.2042 378.345 83.6179Z" fill="black"/>
<path d="M375.399 83.7734C375.399 84.0319 375.658 84.2905 375.917 84.2905C376.227 84.2905 376.434 84.0319 376.434 83.7734C376.434 83.4631 376.227 83.2562 375.917 83.2562C375.658 83.2562 375.399 83.4631 375.399 83.7734Z" fill="black"/>
<path d="M376.847 85.6868C377.933 86.4625 377.985 86.566 377.157 87.4451C376.382 88.2726 376.382 88.4277 377.054 88.4277C379.278 88.4277 378.967 85.9454 376.692 85.1696C375.813 84.8593 375.813 84.9628 376.847 85.6868Z" fill="black"/>
<path d="M386.001 85.8418C385.794 86.4623 385.743 87.0829 385.898 87.2381C386.053 87.3415 386.312 86.9795 386.518 86.3589C386.725 85.7383 386.777 85.1177 386.622 84.9626C386.467 84.8592 386.208 85.2212 386.001 85.8418Z" fill="black"/>
<path d="M379.38 86.7211C379.536 87.0831 380.053 87.3417 380.518 87.29C381.087 87.1865 381.294 87.4451 381.242 88.1691C380.984 90.2895 381.811 90.7549 382.07 88.6863C382.328 86.8762 382.535 86.6177 383.621 86.7728C384.345 86.8245 384.707 86.7211 384.5 86.5142C384.293 86.3074 383.001 86.1005 381.604 86.0488C379.691 85.9971 379.174 86.1522 379.38 86.7211Z" fill="black"/>
<path d="M382.949 87.8587C382.742 88.1173 382.949 88.4275 383.259 88.5827C383.776 88.7378 383.776 88.9447 383.311 89.5653C382.949 89.979 382.794 90.4962 383.001 90.6513C383.156 90.8582 382.846 91.0133 382.328 91.0133C381.76 91.0133 381.036 90.7548 380.725 90.4445C380.312 90.0307 380.053 90.0307 379.846 90.4445C379.639 90.7548 379.536 91.0133 379.639 91.0651C379.743 91.0651 380.312 91.1685 380.984 91.3236C381.656 91.4271 382.846 91.8925 383.673 92.3062C384.604 92.7717 385.276 92.8751 385.483 92.5648C385.638 92.2545 385.483 92.0477 385.121 92.0477C384.604 92.0477 384.656 91.8925 385.225 91.4788C385.845 91.0651 385.742 91.0133 384.863 91.2719C383.466 91.6856 383.311 91.1168 384.604 90.1859C385.431 89.5653 385.431 89.4619 384.449 88.7378L383.414 87.9104L384.449 88.2207C385.276 88.4793 385.328 88.4275 384.707 87.9621C383.776 87.2898 383.311 87.2381 382.949 87.8587Z" fill="black"/>
<path d="M380.311 88.4281C380.156 88.6867 379.742 88.8418 379.38 88.7384C379.018 88.6867 378.967 88.6867 379.173 88.8418C379.38 88.9452 379.277 89.4107 378.915 89.8761C378.294 90.6001 378.346 90.6001 379.38 89.9278C380.053 89.5658 380.673 88.9452 380.777 88.5832C381.087 87.8075 380.777 87.7041 380.311 88.4281Z" fill="black"/>
<path d="M375.553 89.3069C375.191 89.4103 374.881 89.7723 374.881 90.0309C374.881 90.3412 375.139 90.3929 375.45 90.1861C375.812 89.9792 375.915 90.1861 375.708 90.8066C375.553 91.3755 375.657 92.1513 375.967 92.565C376.432 93.2373 376.484 93.1856 376.225 92.4098C376.07 91.8927 376.225 91.3755 376.639 91.2204C377.88 90.7549 378.036 89.5655 376.846 89.8758C376.122 90.0309 375.863 89.9275 376.122 89.5655C376.536 88.8932 376.484 88.8932 375.553 89.3069Z" fill="black"/>
<path d="M377.468 91.5308C377.054 91.7894 376.899 92.2031 377.158 92.41C377.416 92.6168 377.727 92.5134 377.83 92.2031C377.985 91.7376 378.347 91.6859 379.071 92.0479C379.847 92.4617 379.95 92.41 379.743 91.7894C379.381 90.9102 378.606 90.8068 377.468 91.5308Z" fill="black"/>
<path d="M395.205 92.3065C394.895 93.0305 394.74 93.5994 394.895 93.5994C395.257 93.5994 396.55 91.8927 396.601 91.3756C396.601 90.5481 395.774 91.117 395.205 92.3065Z" fill="black"/>
<path d="M380.57 92.5652C380.57 92.8755 380.777 93.0307 381.036 92.8755C381.294 92.6687 381.656 92.8238 381.76 93.0824C381.915 93.3927 381.967 93.341 381.915 92.979C381.76 92.2032 380.57 91.7895 380.57 92.5652Z" fill="black"/>
<path d="M377.467 93.1339C376.795 93.6511 376.795 93.6511 377.467 93.4442C378.657 93.0822 380.57 93.9614 380.57 94.8923C380.57 95.306 380.725 95.668 380.984 95.7197C381.191 95.7197 381.966 95.8232 382.742 95.9266C383.518 96.03 384.345 95.8749 384.5 95.5646C384.707 95.2026 384.604 95.1508 384.294 95.3577C383.725 95.668 383.466 95.0474 383.621 93.9614C383.621 93.7545 383.466 93.5994 383.156 93.5994C382.897 93.5994 382.639 93.9097 382.639 94.3234C382.639 94.7371 382.38 95.2543 382.07 95.4611C381.708 95.668 381.553 95.5129 381.708 95.0991C381.863 94.6854 381.242 94.0131 380.208 93.4959C378.191 92.4099 378.45 92.4616 377.467 93.1339Z" fill="black"/>
<path d="M392.982 93.2373C392.982 93.8579 394.741 95.668 395.31 95.668C395.93 95.668 397.533 93.5993 397.171 93.3408C396.913 93.2373 396.603 93.4442 396.396 93.8579C396.189 94.4268 395.827 94.4785 394.948 94.1682C394.275 93.9096 393.81 93.4442 393.913 93.1339C393.965 92.8236 393.81 92.565 393.5 92.565C393.241 92.565 392.982 92.8753 392.982 93.2373Z" fill="black"/>
<path d="M378.502 94.6335C379.536 95.3058 380.208 95.3058 379.795 94.6335C379.64 94.3232 379.071 94.1163 378.605 94.1163C377.829 94.1163 377.829 94.2197 378.502 94.6335Z" fill="black"/>
<path d="M388.379 94.9438C388.379 95.5126 388.534 95.6678 388.69 95.254C388.845 94.892 388.793 94.4266 388.638 94.2714C388.483 94.0646 388.328 94.3749 388.379 94.9438Z" fill="black"/>
<path d="M391.223 94.6854C391.43 95.0991 391.171 95.1509 390.344 94.944L389.103 94.582L390.344 95.306C391.533 96.03 391.533 96.0817 390.602 96.5989C389.775 97.1161 389.723 97.1678 390.499 97.2195C390.964 97.2195 391.792 97.3746 392.309 97.5298C393.136 97.8401 393.136 97.7884 392.205 97.0126C391.171 96.1335 391.171 96.1335 392.309 96.4438C393.809 96.8575 394.429 95.7197 393.24 94.7888C392.05 93.9614 390.706 93.9097 391.223 94.6854ZM393.24 96.0817C392.93 96.4438 391.481 95.5129 391.74 95.0991C391.895 94.8406 392.309 94.944 392.723 95.306C393.085 95.6163 393.343 95.9783 393.24 96.0817Z" fill="black"/>
<path d="M405.187 94.5816C405.032 94.8401 405.239 95.1504 405.653 95.3573C406.066 95.5125 406.428 95.9779 406.428 96.4433C406.428 96.8571 406.739 97.2191 407.101 97.2191C407.514 97.2191 407.463 97.4259 406.946 97.788C406.377 98.2017 406.48 98.2534 407.463 97.9431C408.187 97.788 408.859 97.5294 408.963 97.4259C409.376 97.0639 407.308 95.1504 406.894 95.4607C406.635 95.6159 406.428 95.3573 406.428 94.9436C406.428 94.0644 405.653 93.8058 405.187 94.5816ZM408.032 96.5468C408.704 97.3742 408.652 97.4259 407.876 96.7536C407.359 96.3916 406.946 95.9779 406.946 95.8745C406.946 95.4607 407.359 95.7193 408.032 96.5468Z" fill="black"/>
<path d="M403.894 95.4611C403.894 96.03 404.049 96.1851 404.204 95.7714C404.359 95.4094 404.308 94.9439 404.153 94.7888C403.997 94.5819 403.842 94.8922 403.894 95.4611Z" fill="black"/>
<path d="M377.984 95.6681C377.984 95.9267 378.243 96.1853 378.502 96.1853C378.812 96.1853 379.019 95.9267 379.019 95.6681C379.019 95.3578 378.812 95.151 378.502 95.151C378.243 95.151 377.984 95.3578 377.984 95.6681Z" fill="black"/>
<path d="M396.602 96.1852C396.602 96.4438 396.86 96.7024 397.17 96.7024C397.429 96.7024 397.532 96.4438 397.377 96.1852C397.222 95.8749 396.964 95.6681 396.808 95.6681C396.705 95.6681 396.602 95.8749 396.602 96.1852Z" fill="black"/>
<path d="M400.74 96.1851C400.223 96.4954 400.171 96.7022 400.636 96.7022C400.947 96.7022 401.257 97.0125 401.257 97.3228C401.257 97.6848 401.826 97.9951 402.55 97.9951C403.274 97.9951 403.843 97.7883 403.843 97.5814C403.843 97.3228 404.308 97.3228 404.877 97.478C405.601 97.6848 405.911 97.5814 405.911 97.0125C405.911 96.5988 405.601 96.2885 405.291 96.3919C403.119 97.0642 401.774 97.1677 401.774 96.7022C401.774 96.3919 402.033 96.2885 402.291 96.4436C402.602 96.5988 402.809 96.4954 402.809 96.2368C402.809 95.5128 401.774 95.5128 400.74 96.1851Z" fill="black"/>
<path d="M386.828 96.6505C386.415 96.9608 386.363 97.2194 386.673 97.4263C386.983 97.5814 387.397 97.478 387.552 97.1677C388.018 96.4437 387.656 96.1334 386.828 96.6505Z" fill="black"/>
<path d="M381.294 97.1164C381.449 97.375 381.294 97.7887 380.983 97.8921C380.518 98.099 380.466 98.2024 380.932 98.2024C381.811 98.2541 382.225 97.375 381.552 96.9095C381.19 96.7026 381.087 96.7544 381.294 97.1164Z" fill="black"/>
<path d="M384.138 97.4779C385.069 97.8917 386 98.2537 386.207 98.2537C386.879 98.2019 383.88 96.7539 383.156 96.7539C382.742 96.7539 383.156 97.0642 384.138 97.4779Z" fill="black"/>
<path d="M246.005 123.956C246.367 124.112 246.833 124.06 246.988 123.905C247.195 123.75 246.884 123.594 246.316 123.646C245.747 123.646 245.592 123.801 246.005 123.956Z" fill="black"/>
<path d="M259.968 123.956C260.33 124.112 260.796 124.06 260.951 123.905C261.158 123.75 260.847 123.594 260.278 123.646C259.71 123.646 259.554 123.801 259.968 123.956Z" fill="black"/>
<path d="M317.891 123.956C318.253 124.112 318.718 124.06 318.874 123.905C319.08 123.75 318.77 123.594 318.201 123.646C317.632 123.646 317.477 123.801 317.891 123.956Z" fill="black"/>
<path d="M324.098 123.956C324.46 124.112 324.925 124.06 325.081 123.905C325.287 123.75 324.977 123.594 324.408 123.646C323.839 123.646 323.684 123.801 324.098 123.956Z" fill="black"/>
<path d="M341.679 123.956C342.041 124.112 342.507 124.06 342.662 123.905C342.869 123.75 342.558 123.594 341.989 123.646C341.42 123.646 341.265 123.801 341.679 123.956Z" fill="black"/>
<path d="M374.26 123.956C374.622 124.112 375.088 124.06 375.243 123.905C375.45 123.75 375.139 123.594 374.57 123.646C374.002 123.646 373.846 123.801 374.26 123.956Z" fill="black"/>
<path d="M381.501 123.957C381.812 124.06 382.432 124.06 382.794 123.957C383.105 123.801 382.846 123.698 382.122 123.698C381.398 123.698 381.139 123.801 381.501 123.957Z" fill="black"/>
<path d="M285.671 213.994C281.896 215.287 278.483 217.821 273.57 222.786C265.502 231.008 259.555 240.524 258.003 247.764C257.124 251.798 257.538 258.211 258.934 261.314L260.02 263.796L256.297 266.537C252.987 268.968 246.316 273.415 241.351 276.415C238.558 278.122 238.92 281.328 241.92 281.328C243.368 281.328 247.505 278.69 257.693 271.295L263.227 267.261L265.916 268.451C269.95 270.209 276.983 270.002 282.206 267.985C283.292 267.623 281.844 269.433 271.812 281.328C263.382 291.206 260.227 295.705 259.762 298.291C258.986 302.376 262.192 305.169 266.433 304.083C268.088 303.617 269.484 302.583 272.329 299.687C275.483 296.429 276.518 294.877 279.362 288.982C281.276 285.155 284.068 278.122 285.671 273.157L288.619 264.21L290.74 263.124C291.929 262.555 294.153 261.262 295.704 260.28C297.204 259.297 298.549 258.625 298.652 258.728C298.755 258.831 298.497 259.918 298.083 261.159C297.618 262.4 296.945 264.779 296.48 266.485C295.756 269.226 295.756 269.64 296.532 270.778C297.514 272.329 299.428 272.381 301.652 270.985C303.255 270.054 308.53 264.417 313.288 258.676C314.529 257.228 315.77 255.987 316.029 255.987C316.649 255.987 316.546 260.745 315.822 264.572C315.149 268.399 315.667 270.261 317.684 270.778C319.752 271.295 321.769 269.744 326.268 264.158C328.596 261.21 330.716 258.78 330.923 258.676C331.13 258.625 331.44 260.124 331.543 262.038C331.905 266.33 332.733 268.295 334.439 268.761C336.301 269.226 338.577 267.83 343.593 263.124C345.92 260.9 347.989 259.09 348.144 259.09C348.248 259.09 348.454 260.642 348.61 262.607C348.765 264.52 349.282 266.847 349.747 267.727C351.816 271.812 358.591 272.898 369.71 271.036C380.311 269.226 383.673 267.778 382.897 265.348C382.38 263.693 380.415 263.538 375.76 264.675C370.434 266.02 358.591 267.52 356.677 267.106C354.143 266.537 353.161 264.624 353.161 260.28C353.161 256.866 353.005 256.297 351.816 255.108C350.73 254.022 350.161 253.867 348.661 254.074C346.851 254.384 342.817 257.125 338.835 260.797L336.663 262.762L336.405 260.435C336.25 259.142 335.939 257.021 335.784 255.729C335.629 254.125 335.112 253.143 334.233 252.419C332.061 250.712 330.457 251.746 325.182 258.314L321.872 262.452L321.614 258.056C321.304 253.194 320.58 251.591 318.356 250.816C315.511 249.833 313.495 251.333 305.427 260.383C304.444 261.521 303.462 262.296 303.306 262.141C303.151 261.986 303.462 260.486 304.031 258.831C306.668 251.126 304.082 247.868 298.962 252.419C296.583 254.487 290.998 258.056 290.067 258.056C289.809 258.056 289.498 257.383 289.291 256.504C289.085 255.677 288.205 254.384 287.326 253.608C285.93 252.419 285.361 252.264 283.086 252.522C281.689 252.626 280.034 252.936 279.517 253.143C278.948 253.401 279.827 252.057 281.431 250.091C287.947 242.438 293.377 234.266 295.239 229.198C295.808 227.647 296.583 224.699 296.894 222.682C297.825 216.631 296.066 213.942 290.843 213.321C289.033 213.115 287.481 213.321 285.671 213.994ZM291.567 218.183C292.653 218.855 291.929 224.182 290.274 228.164C287.275 235.301 278.69 246.627 269.639 255.418C264.52 260.383 264.002 260.745 263.382 259.918C261.572 257.383 261.83 249.729 263.899 244.661C265.916 239.697 271.553 231.577 276.569 226.509C281.327 221.699 283.861 219.838 287.533 218.545C290.222 217.614 290.636 217.562 291.567 218.183ZM284.792 258.728C285.154 259.504 285.361 260.59 285.154 261.107C284.792 262.245 280.965 264.003 277.087 264.831C274.346 265.451 269.536 265.141 268.76 264.365C268.295 263.9 275.07 259.711 278.948 258.107C282.31 256.711 283.913 256.866 284.792 258.728ZM276.363 284.741C274.346 289.292 271.449 293.74 268.605 296.688C265.968 299.428 264.726 300.049 264.726 298.756C264.726 297.256 276.363 281.845 277.5 281.845C277.552 281.845 277.087 283.138 276.363 284.741Z" fill="black"/>
<path d="M301.704 239.697C300.256 241.093 300.153 241.61 300.928 243.11C301.756 244.61 304.238 244.403 305.531 242.748C306.824 241.093 306.876 240.317 305.79 239.231C304.652 238.042 303.152 238.197 301.704 239.697Z" fill="black"/>
<path d="M119.404 108.493C117.698 109.321 116.198 111.803 116.974 112.527C117.181 112.734 118.577 112.476 120.128 111.958C122.507 111.131 123.335 111.079 125.455 111.545C128.196 112.217 128.713 112.062 128.713 110.717C128.713 109.528 125.145 107.562 122.973 107.562C121.99 107.562 120.387 107.976 119.404 108.493Z" fill="black"/>
<path d="M91.0647 109.114C89.8236 109.89 89.4098 110.51 89.5133 111.338C89.6167 112.165 89.927 112.424 90.7027 112.269C91.2716 112.165 93.754 112.062 96.288 112.113C100.27 112.165 100.787 112.062 100.787 111.234C100.787 108.442 94.3746 107.045 91.0647 109.114Z" fill="black"/>
<path d="M93.4945 121.371C93.0808 121.836 92.7705 123.284 92.7705 124.629C92.7705 127.37 93.6497 128.766 95.3563 128.766C98.0455 128.766 99.7004 124.164 97.8904 121.63C96.9595 120.285 94.5288 120.078 93.4945 121.371Z" fill="black"/>
<path d="M120.75 121.63C118.992 124.112 120.233 128.766 122.663 128.766C124.111 128.766 124.784 128.301 125.559 126.853C127.007 124.008 125.611 120.492 123.025 120.492C122.094 120.492 121.267 120.906 120.75 121.63Z" fill="black"/>
<path d="M109.837 124.111C109.682 124.422 110.251 126.077 111.078 127.887C112.785 131.3 113.767 135.437 113.302 137.144C113.095 137.971 112.785 138.126 111.388 137.868C108.854 137.351 108.027 138.644 109.785 140.402C111.492 142.109 113.664 142.109 115.267 140.402C117.801 137.713 116.87 129.8 113.405 125.301C112.164 123.646 110.458 123.077 109.837 124.111Z" fill="black"/>
<path d="M97.5279 145.16C95.9247 146.763 99.1311 150.383 103.165 151.521C106.061 152.348 110.612 151.986 112.422 150.797C114.594 149.349 113.301 148.677 108.388 148.625C103.941 148.573 101.872 147.901 100.062 145.884C99.0794 144.798 98.1485 144.539 97.5279 145.16Z" fill="black"/>
<path d="M554.905 128.973C554.543 129.387 554.336 130.887 554.44 132.49C554.595 134.92 554.75 135.231 555.784 135.386C556.457 135.489 557.336 135.283 557.75 134.972C558.577 134.248 558.732 130.732 557.956 129.232C557.284 128.094 555.733 127.939 554.905 128.973Z" fill="black"/>
<path d="M525.684 139.937C524.288 141.333 524.753 142.316 528.529 146.143L532.252 149.866L531.166 151.418C530.545 152.245 528.994 153.797 527.701 154.831C525.219 156.9 524.34 158.813 525.374 160.054C526.874 161.864 528.58 160.985 533.545 156.02C536.338 153.176 538.303 150.797 538.303 150.228C538.303 148.935 528.58 139.109 527.339 139.109C526.874 139.109 526.098 139.471 525.684 139.937Z" fill="black"/>
<path d="M554.336 143.195C553.612 144.591 553.664 151.159 554.44 151.935C554.802 152.297 555.526 152.555 556.146 152.555C558.008 152.555 558.474 151.521 558.474 147.384C558.474 145.005 558.215 143.195 557.853 142.833C556.922 141.902 554.957 142.109 554.336 143.195Z" fill="black"/>
<path d="M465.487 148.522C464.556 149.452 464.763 151.418 465.849 152.038C466.418 152.297 468.279 152.555 470.038 152.555C473.813 152.555 475.209 151.935 475.209 150.228C475.209 149.504 474.796 148.728 474.227 148.418C472.83 147.694 466.263 147.746 465.487 148.522Z" fill="black"/>
<path d="M482.864 148.47C481.623 149.142 481.675 151.366 482.916 152.038C483.485 152.297 485.45 152.555 487.26 152.555C489.794 152.555 490.777 152.349 491.398 151.625C492.484 150.435 492.484 149.763 491.449 148.728C490.518 147.746 484.312 147.591 482.864 148.47Z" fill="black"/>
<path d="M499.31 148.677C497.138 150.901 499 152.555 503.706 152.555C506.602 152.555 507.481 152.349 508.36 151.469C509.291 150.538 509.343 150.28 508.671 149.297C508.05 148.315 507.378 148.16 504.016 148.004C501.017 147.901 499.982 148.056 499.31 148.677Z" fill="black"/>
<path d="M516.479 148.47C515.237 149.142 515.289 151.366 516.53 152.038C518.134 152.866 523.098 152.711 524.029 151.728C525.167 150.642 525.064 149.09 523.874 148.418C522.581 147.746 517.616 147.746 516.479 148.47Z" fill="black"/>
<path d="M554.336 160.261C554.077 160.83 553.818 162.899 553.818 164.864C553.818 167.76 554.025 168.587 554.853 169.363C555.732 170.139 556.094 170.191 557.18 169.725C558.421 169.156 558.473 168.898 558.473 164.812C558.473 162.175 558.214 160.261 557.852 159.899C556.921 158.968 554.956 159.175 554.336 160.261Z" fill="black"/>
<path d="M555.008 176.707C554.543 176.862 554.336 178.103 554.336 180.275C554.336 182.085 554.181 183.585 553.974 183.585C553.819 183.585 552.215 182.188 550.405 180.482C547.199 177.379 545.803 176.81 544.613 177.999C543.01 179.603 543.889 181.206 549.63 186.843C552.681 189.894 555.629 192.376 556.146 192.376C556.663 192.376 559.611 189.894 562.662 186.843C567.058 182.55 568.299 180.999 568.299 179.913C568.299 178.206 567.11 177.172 565.558 177.586C564.937 177.741 563.283 179.137 561.938 180.74C560.542 182.292 559.249 183.585 558.938 183.585C558.68 183.585 558.473 182.24 558.473 180.585C558.473 176.81 557.439 175.672 555.008 176.707Z" fill="black"/>
<path d="M502.618 200.082C498.585 201.323 495.275 204.013 493.413 207.581L492.017 210.219V246.937V283.655L493.413 286.293C494.861 289.034 496.878 291.051 499.722 292.602C501.119 293.378 503.756 293.533 522.27 293.74L543.215 293.998L543.319 310.651C543.319 319.856 543.215 327.355 543.06 327.355C542.853 327.355 541.56 325.907 540.112 324.149C535.355 318.305 534.63 317.581 532.303 316.495C526.925 313.857 520.098 316.236 518.185 321.304C517.254 323.735 517.564 327.872 518.857 331.027C519.478 332.63 523.046 338.319 526.77 343.697C530.442 349.076 534.372 354.816 535.406 356.471C536.492 358.074 539.285 361.488 541.612 363.97C543.939 366.452 546.37 369.245 546.991 370.124L548.18 371.831H546.163C542.595 371.831 542.233 372.762 542.026 381.76C541.871 388.173 541.974 389.673 542.698 390.759L543.474 392H575.434C599.586 392 607.55 391.845 608.015 391.379C608.429 390.966 608.636 388.173 608.636 382.329C608.636 374.572 608.533 373.796 607.602 372.865C607.033 372.296 605.895 371.831 605.016 371.831C603.568 371.831 603.464 371.676 603.464 369.917C603.464 368.883 604.757 364.28 606.309 359.678C607.86 355.127 609.515 349.386 609.929 347.007C610.963 341.112 611.377 328.7 610.86 320.063C610.343 311.944 609.567 309.875 606.102 307.445C604.137 306.048 603.464 305.893 599.896 305.841C595.914 305.841 595.81 305.79 594.207 303.98C591.932 301.342 590.225 300.825 585.467 301.083C583.295 301.239 581.123 301.497 580.709 301.652C580.192 301.859 579.572 301.394 578.899 300.359C576.882 297.205 575.434 296.584 570.314 296.584H565.712V295.136V293.74H587.329C612.204 293.74 612.308 293.74 616.497 289.551C620.686 285.362 620.582 286.706 620.427 245.851L620.272 210.219L618.876 207.581C618.1 206.081 616.497 204.064 615.256 203.03C611.118 199.462 613.652 199.617 555.937 199.669C527.339 199.669 503.342 199.875 502.618 200.082ZM607.136 213.373L608.377 214.718L608.533 245.954C608.688 280.035 608.636 280.242 605.792 281.328C604.964 281.638 596.69 281.845 585.157 281.845H565.815L565.608 277.036C565.35 271.967 564.626 269.847 562.143 267.21C559.764 264.624 557.179 263.589 553.507 263.848C549.525 264.107 546.732 265.813 544.663 269.278C543.422 271.399 543.215 272.381 543.06 276.829L542.853 281.897L524.494 281.742L506.135 281.587L504.894 280.139L503.653 278.639L503.756 246.575L503.911 214.511L505.359 213.27L506.807 212.029H556.351H605.895L607.136 213.373ZM557.489 269.071C561.109 271.45 561.057 271.088 561.057 297.877C561.057 315.926 561.212 322.132 561.678 322.597C562.505 323.425 564.522 323.373 565.039 322.546C565.246 322.235 565.557 317.374 565.712 311.84L565.97 301.756L568.142 301.032C571.09 299.997 574.141 300.877 575.538 303.204C576.469 304.652 576.572 305.841 576.572 313.392C576.572 322.442 576.779 323.218 579.003 323.218C580.865 323.218 581.227 321.666 581.227 314.012C581.227 308.737 581.382 306.669 581.899 306.255C583.037 305.272 586.708 304.962 588.674 305.634C591.828 306.669 592.087 307.496 592.087 316.236C592.087 321.615 592.294 324.252 592.707 324.666C593.535 325.493 595.552 325.442 596.069 324.614C596.276 324.304 596.586 320.994 596.741 317.271L597 310.599L598.913 310.134C601.344 309.565 603.878 310.703 605.274 313.03C606.257 314.581 606.309 315.719 606.309 329.424C606.309 346.18 606.05 347.628 601.654 359.522C600.361 363.039 599.172 367.228 598.965 368.831L598.655 371.831H575.848L553.041 371.779L552.007 369.762C551.438 368.624 548.749 365.315 546.06 362.367C540.992 356.885 525.477 334.595 522.994 329.165C520.978 324.873 521.546 322.08 524.856 320.373C528.787 318.357 531.217 320.063 539.337 330.458C542.233 334.13 544.819 337.285 545.077 337.44C545.336 337.595 546.008 337.491 546.577 337.181C547.611 336.612 547.611 336.199 547.611 305.376C547.611 284.534 547.818 273.674 548.18 272.691C549.835 268.347 553.972 266.744 557.489 269.071Z" fill="black"/>
<path d="M469.884 318.253C467.143 321.253 464.867 323.994 464.867 324.408C464.867 325.442 475.159 335.63 476.245 335.63C477.227 335.63 478.83 334.078 478.83 333.044C478.83 332.682 477.072 330.51 474.9 328.286L470.97 324.149L474.9 320.115C477.072 317.891 478.83 315.823 478.83 315.461C478.83 314.064 477.693 312.875 476.348 312.875C475.159 312.875 473.917 313.909 469.884 318.253Z" fill="black"/>
<path d="M479.761 322.753C478.675 323.373 478.52 325.287 479.451 326.218C480.279 327.045 485.657 326.993 486.846 326.166C488.295 325.028 487.519 322.908 485.502 322.494C483.175 322.029 480.796 322.132 479.761 322.753Z" fill="black"/>
<path d="M495.897 322.649C495.07 322.856 494.552 323.425 494.449 324.149C494.139 326.218 495.173 326.838 499.103 326.838C503.292 326.838 504.689 326.269 504.689 324.511C504.689 323.787 504.275 323.011 503.706 322.701C502.568 322.132 497.914 322.08 495.897 322.649Z" fill="black"/>
</svg>
