<svg width="143" height="40" viewBox="0 0 143 40" fill="none" xmlns="http://www.w3.org/2000/svg">
<path d="M23.6472 0.449131C23.0527 0.781729 22.2033 1.6317 20.6914 3.42403C19.5193 4.80986 18.551 6.04786 18.517 6.1772C18.4661 6.41741 22.8658 11.7759 23.3754 12.0716C23.5963 12.2009 24.1229 11.702 25.9915 9.57709C27.2825 8.11736 28.4886 6.58371 28.6755 6.15873C29.1002 5.23484 29.1002 4.18162 28.6755 3.18382C28.3018 2.27842 26.9428 0.633907 26.2633 0.245876C25.5668 -0.142154 24.5985 -0.0682437 23.6472 0.449131Z" fill="black"/>
<path d="M16.5122 8.13584C16.0705 8.6717 12.9958 10.8521 11.9426 11.3694C11.467 11.6096 9.90413 12.164 8.47719 12.6074C6.25185 13.2911 5.82716 13.4759 5.6403 13.8824C5.52139 14.1226 5.14767 15.3606 4.80792 16.6356C4.09445 19.2594 3.34701 21.7169 1.78417 26.595C0.544095 30.4938 -0.118411 33.0807 0.0174874 33.5057C0.238323 34.1339 1.22359 33.8198 4.40022 32.1568C8.00154 30.2536 14.4567 27.2233 16.1894 26.595C16.835 26.3548 17.7523 25.9853 18.194 25.7635L19.0263 25.3755L19.434 23.6571C20.0795 20.9963 21.1328 17.6334 21.9312 15.7117L22.6446 13.9933L20.6911 11.8314C19.6209 10.6488 18.3978 9.2445 17.9731 8.70865C17.5484 8.19128 17.1068 7.74781 17.0218 7.74781C16.9199 7.74781 16.6991 7.91411 16.5122 8.13584ZM12.8429 19.2409C13.5564 20.0724 13.9471 21.1256 13.8112 21.9202C13.6753 22.7701 12.6561 23.9527 11.8577 24.2114C10.8724 24.5255 10.091 24.2853 9.47944 23.4908C8.85091 22.6593 8.39225 21.1626 8.63007 20.6822C8.8679 20.1833 9.81919 19.3703 10.5836 19.0007C11.6198 18.4833 12.2144 18.5572 12.8429 19.2409ZM8.88488 24.3777C9.20764 24.7657 9.17367 24.7842 7.18615 26.9646C5.58934 28.72 5.04574 29.1819 4.48516 29.3482C4.11144 29.4406 3.77169 29.496 3.72073 29.4591C3.63579 29.3667 8.29033 24.0081 8.4602 24.0081C8.52815 24.0081 8.71501 24.1744 8.88488 24.3777Z" fill="black"/>
<path d="M50.6402 8.85648C48.9754 9.6695 48.7376 11.8499 50.1475 13.2726C50.81 13.9563 52.3219 14.0302 53.1373 13.4389C54.3094 12.589 54.6322 10.9445 53.8678 9.79884C53.494 9.26299 52.22 8.48693 51.6934 8.48693C51.5065 8.48693 51.0309 8.65322 50.6402 8.85648Z" fill="black"/>
<path d="M37.6276 8.94881C35.4022 9.614 33.4487 11.4063 32.7522 13.4204C32.2256 14.9171 32.2256 16.9312 32.7352 18.1692C33.7205 20.5897 34.7907 21.3473 39.5302 22.9733C40.5834 23.3429 41.7215 23.8233 42.0443 24.0266C42.8257 24.5624 43.2844 25.4124 43.2844 26.3178C43.2844 28.1101 42.0783 29.1818 40.0568 29.1818C38.2052 29.1634 37.101 28.3688 36.2686 26.4102C36.0648 25.9483 35.8949 25.5602 35.8779 25.5233C35.8439 25.4678 32.0557 27.4819 31.9198 27.6297C31.716 27.833 32.7862 29.7546 33.6016 30.6785C37.5427 35.0762 45.5097 33.9121 47.3783 28.6645C47.9559 27.0754 47.9219 24.6548 47.3274 23.232C46.444 21.1441 45.0001 20.1093 41.076 18.7604C39.717 18.2985 38.375 17.7626 38.0693 17.5594C36.5064 16.5062 36.5914 14.178 38.2221 13.2726C38.7827 12.9585 39.1564 12.903 40.1587 12.9585C41.2289 13.0139 41.4667 13.0878 42.0273 13.5867C42.384 13.9008 42.8597 14.5106 43.0805 14.9725C43.2844 15.416 43.5222 15.7855 43.5901 15.7855C43.9639 15.7855 47.5312 14.1226 47.5312 13.9563C47.5312 13.6237 46.5799 11.9607 45.9514 11.1661C45.187 10.2053 43.794 9.31836 42.5199 8.94881C41.2969 8.61621 38.7657 8.61621 37.6276 8.94881Z" fill="black"/>
<path d="M90.5944 9.28137C90.5435 9.41072 90.5265 14.7877 90.5435 21.2364L90.5944 32.9697H92.7688H94.9432L94.9772 28.2579L95.0112 23.5461L99.224 23.4907L103.42 23.4537V21.3288V19.2039H99.1731H94.9262V16.4322V13.6606H99.7676H104.626L104.575 11.3878L104.524 9.13355L97.5932 9.07812C92.0723 9.04116 90.6454 9.07812 90.5944 9.28137Z" fill="black"/>
<path d="M135.22 13.6606L135.271 15.8779H134.082H132.893V17.8181V19.7582H134.014H135.152L135.22 24.6918C135.271 29.2188 135.322 29.7177 135.645 30.4937C136.086 31.5655 136.749 32.2306 137.734 32.6002C138.821 33.0067 140.86 33.1545 142.032 32.8958L143 32.6741V30.9187V29.1818H141.811C140.452 29.1818 139.891 28.9601 139.62 28.3134C139.501 28.0362 139.433 26.3917 139.433 23.8233V19.7582H141.131H142.83V17.8181V15.8779H141.131H139.433V13.6606V11.4433H137.292H135.169L135.22 13.6606Z" fill="black"/>
<path d="M60.594 15.6747C56.2113 17.2083 54.2237 23.2875 56.4321 28.3873C57.1625 30.0688 58.2497 31.2514 59.7276 32.0089C60.7809 32.5633 61.0017 32.6002 62.6495 32.6002C64.7219 32.5818 65.894 32.1937 66.9642 31.122C67.321 30.7709 67.6607 30.4753 67.6947 30.4753C67.7457 30.4753 67.7287 31.0296 67.6607 31.7133C67.5418 33.0252 67.1001 34.3741 66.5905 34.9654C65.7072 36.0371 63.6008 36.4805 61.885 35.9447C61.1716 35.7045 60.6789 35.3904 60.0334 34.7252L59.1501 33.8198L57.6722 34.873C56.8568 35.4458 56.1943 35.9816 56.1943 36.0556C56.1943 36.3697 58.0119 38.2914 58.7933 38.7718C61.3414 40.3424 65.1466 40.4163 67.8136 38.9381C68.8159 38.3837 70.0729 37.0164 70.5486 35.9447C71.3979 34.0415 71.4829 33.0991 71.4829 24.1375V15.878H69.6143H67.7457V17.0236V18.1877L67.321 17.6149C65.962 15.7301 62.9382 14.8617 60.594 15.6747ZM65.8261 19.9061C66.6415 20.368 67.27 21.1995 67.5758 22.2527C67.8986 23.306 67.8476 25.4124 67.4909 26.3733C66.7604 28.2949 64.4671 29.2927 62.4966 28.5352C61.4264 28.1286 60.8998 27.6482 60.3732 26.6135C59.0821 24.0266 60.0164 20.5528 62.2418 19.6474C63.1591 19.2778 64.9258 19.4072 65.8261 19.9061Z" fill="black"/>
<path d="M81.1999 15.6008C79.8918 15.9889 79.4332 16.303 78.5668 17.3562C78.1421 17.8551 77.7684 18.2801 77.7344 18.2801C77.7175 18.2801 77.7175 17.7442 77.7344 17.079L77.8024 15.878H75.8319H73.8613V24.4701V33.0807L75.9508 33.0253L78.0232 32.9698L78.1082 27.1494C78.1591 23.2321 78.2611 21.1996 78.397 20.9593C79.2123 19.4072 81.6076 18.9268 82.8646 20.0539C83.765 20.8854 83.8839 21.7539 83.8839 27.7406V33.0807L85.9733 33.0253L88.0458 32.9698V26.5026C88.0458 19.4442 88.0118 19.1485 87.0605 17.6149C85.9903 15.8595 83.3233 14.9541 81.1999 15.6008Z" fill="black"/>
<path d="M109.552 15.6193C107.496 16.2106 105.933 17.6333 105.305 19.4626C105.135 19.98 104.999 20.4235 105.033 20.4604C105.05 20.4974 105.713 20.6822 106.494 20.8854C107.275 21.0887 108.04 21.2919 108.21 21.3473C108.414 21.4028 108.516 21.2919 108.6 20.8854C108.855 19.592 109.892 18.8344 111.437 18.8344C113.085 18.8344 114.019 19.6844 114.274 21.3658L114.41 22.3082L113.646 22.4191C113.221 22.4745 112.525 22.5299 112.066 22.5299C110.809 22.5299 108.719 23.0288 107.598 23.6016C105.594 24.6179 104.795 25.9668 104.778 28.2765C104.778 31.5101 106.681 33.3578 109.976 33.3209C111.132 33.3209 111.522 33.2285 112.321 32.8035C112.83 32.5263 113.527 31.9535 113.867 31.547L114.461 30.771V31.3438C114.461 31.6579 114.512 32.1753 114.563 32.4894L114.682 33.0622H116.568H118.453L118.402 27.8515C118.385 24.969 118.283 22.031 118.181 21.3289C117.757 18.1507 116.126 16.1366 113.476 15.5269C112.27 15.2497 110.673 15.2867 109.552 15.6193ZM114.291 26.0776C114.291 28.0917 113.442 29.3666 111.845 29.7547C110.027 30.1981 108.685 29.4036 108.685 27.8884C108.685 26.9646 108.872 26.5765 109.45 26.1515C110.061 25.7081 111.743 25.3385 113.153 25.32L114.291 25.3016V26.0776Z" fill="black"/>
<path d="M124.144 15.5823C121.63 16.3769 120.084 18.3355 120.067 20.7376C120.067 22.0495 120.407 22.9549 121.222 23.8788C122.208 25.0059 123.159 25.4125 126.336 26.1516C128.102 26.5581 128.595 26.9646 128.595 27.9808C128.595 29.3112 127.185 30.1427 125.486 29.8286C124.671 29.6808 123.618 28.7384 123.295 27.8885C123.176 27.5743 123.04 27.3341 122.989 27.3341C122.938 27.3341 122.174 27.6298 121.307 27.9993C120.186 28.4797 119.728 28.7569 119.728 28.9786C119.728 29.533 120.883 31.3068 121.647 31.8981C124.212 33.9122 128.697 33.8383 131.109 31.7688C133.063 30.0873 133.317 26.1516 131.585 24.4516C130.888 23.731 129.733 23.2321 127.406 22.6223C124.722 21.9017 124.246 21.6061 124.178 20.5528C124.127 19.9061 124.195 19.7398 124.654 19.3148C125.113 18.9083 125.35 18.8344 126.217 18.8344C127.474 18.8344 128.153 19.2409 128.714 20.3126C128.918 20.7191 129.139 21.0517 129.206 21.0517C129.274 21.0517 130.039 20.793 130.905 20.4789C132.672 19.8322 132.655 19.8692 131.857 18.3355C131.313 17.3008 130.226 16.3399 129.088 15.8595C127.898 15.3606 125.282 15.2128 124.144 15.5823Z" fill="black"/>
<path d="M49.5693 24.4701V33.0807L51.6588 33.0253L53.7312 32.9698L53.7822 24.4147L53.8162 15.878H51.6928H49.5693V24.4701Z" fill="black"/>
</svg>
